<?xml version="1.0" encoding="utf-8" standalone="no"?>
<!DOCTYPE svg PUBLIC "-//W3C//DTD SVG 1.1//EN"
  "http://www.w3.org/Graphics/SVG/1.1/DTD/svg11.dtd">
<svg xmlns:xlink="http://www.w3.org/1999/xlink" width="424.159895pt" height="349.162375pt" viewBox="0 0 424.159895 349.162375" xmlns="http://www.w3.org/2000/svg" version="1.1">
 <metadata>
  <rdf:RDF xmlns:dc="http://purl.org/dc/elements/1.1/" xmlns:cc="http://creativecommons.org/ns#" xmlns:rdf="http://www.w3.org/1999/02/22-rdf-syntax-ns#">
   <cc:Work>
    <dc:type rdf:resource="http://purl.org/dc/dcmitype/StillImage"/>
    <dc:date>2026-06-01T18:23:19.117349</dc:date>
    <dc:format>image/svg+xml</dc:format>
    <dc:creator>
     <cc:Agent>
      <dc:title>Matplotlib v3.10.8, https://matplotlib.org/</dc:title>
     </cc:Agent>
    </dc:creator>
   </cc:Work>
  </rdf:RDF>
 </metadata>
 <defs>
  <style type="text/css">*{stroke-linejoin: round; stroke-linecap: butt}</style>
 </defs>
 <g id="figure_1">
  <g id="patch_1">
   <path d="M 0 349.162375 
L 424.159895 349.162375 
L 424.159895 0 
L 0 0 
z
" style="fill: #ffffff"/>
  </g>
  <g id="axes_1">
   <g id="patch_2">
    <path d="M 43.78125 311.606125 
L 408.159895 311.606125 
L 408.159895 22.318125 
L 43.78125 22.318125 
z
" style="fill: #ffffff"/>
   </g>
   <g id="matplotlib.axis_1">
    <g id="xtick_1">
     <g id="line2d_1">
      <path d="M 43.78125 311.606125 
L 43.78125 22.318125 
" clip-path="url(#p937711f7e0)" style="fill: none; stroke: #b0b0b0; stroke-opacity: 0.3; stroke-width: 0.8; stroke-linecap: square"/>
     </g>
     <g id="line2d_2">
      <defs>
       <path id="mc377304907" d="M 0 0 
L 0 3.5 
" style="stroke: #000000; stroke-width: 0.8"/>
      </defs>
      <g>
       <use xlink:href="#mc377304907" x="43.78125" y="311.606125" style="stroke: #000000; stroke-width: 0.8"/>
      </g>
     </g>
     <g id="text_1">
      <!-- $\mathdefault{10^{-6}}$ -->
      <g transform="translate(32.03125 326.204563) scale(0.1 -0.1)">
       <defs>
        <path id="DejaVuSans-31" d="M 794 531 
L 1825 531 
L 1825 4091 
L 703 3866 
L 703 4441 
L 1819 4666 
L 2450 4666 
L 2450 531 
L 3481 531 
L 3481 0 
L 794 0 
L 794 531 
z
" transform="scale(0.015625)"/>
        <path id="DejaVuSans-30" d="M 2034 4250 
Q 1547 4250 1301 3770 
Q 1056 3291 1056 2328 
Q 1056 1369 1301 889 
Q 1547 409 2034 409 
Q 2525 409 2770 889 
Q 3016 1369 3016 2328 
Q 3016 3291 2770 3770 
Q 2525 4250 2034 4250 
z
M 2034 4750 
Q 2819 4750 3233 4129 
Q 3647 3509 3647 2328 
Q 3647 1150 3233 529 
Q 2819 -91 2034 -91 
Q 1250 -91 836 529 
Q 422 1150 422 2328 
Q 422 3509 836 4129 
Q 1250 4750 2034 4750 
z
" transform="scale(0.015625)"/>
        <path id="DejaVuSans-2212" d="M 678 2272 
L 4684 2272 
L 4684 1741 
L 678 1741 
L 678 2272 
z
" transform="scale(0.015625)"/>
        <path id="DejaVuSans-36" d="M 2113 2584 
Q 1688 2584 1439 2293 
Q 1191 2003 1191 1497 
Q 1191 994 1439 701 
Q 1688 409 2113 409 
Q 2538 409 2786 701 
Q 3034 994 3034 1497 
Q 3034 2003 2786 2293 
Q 2538 2584 2113 2584 
z
M 3366 4563 
L 3366 3988 
Q 3128 4100 2886 4159 
Q 2644 4219 2406 4219 
Q 1781 4219 1451 3797 
Q 1122 3375 1075 2522 
Q 1259 2794 1537 2939 
Q 1816 3084 2150 3084 
Q 2853 3084 3261 2657 
Q 3669 2231 3669 1497 
Q 3669 778 3244 343 
Q 2819 -91 2113 -91 
Q 1303 -91 875 529 
Q 447 1150 447 2328 
Q 447 3434 972 4092 
Q 1497 4750 2381 4750 
Q 2619 4750 2861 4703 
Q 3103 4656 3366 4563 
z
" transform="scale(0.015625)"/>
       </defs>
       <use xlink:href="#DejaVuSans-31" transform="translate(0 0.765625)"/>
       <use xlink:href="#DejaVuSans-30" transform="translate(63.623047 0.765625)"/>
       <use xlink:href="#DejaVuSans-2212" transform="translate(128.203125 39.046875) scale(0.7)"/>
       <use xlink:href="#DejaVuSans-36" transform="translate(186.855469 39.046875) scale(0.7)"/>
      </g>
     </g>
    </g>
    <g id="xtick_2">
     <g id="line2d_3">
      <path d="M 89.328581 311.606125 
L 89.328581 22.318125 
" clip-path="url(#p937711f7e0)" style="fill: none; stroke: #b0b0b0; stroke-opacity: 0.3; stroke-width: 0.8; stroke-linecap: square"/>
     </g>
     <g id="line2d_4">
      <g>
       <use xlink:href="#mc377304907" x="89.328581" y="311.606125" style="stroke: #000000; stroke-width: 0.8"/>
      </g>
     </g>
     <g id="text_2">
      <!-- $\mathdefault{10^{-5}}$ -->
      <g transform="translate(77.578581 326.204563) scale(0.1 -0.1)">
       <defs>
        <path id="DejaVuSans-35" d="M 691 4666 
L 3169 4666 
L 3169 4134 
L 1269 4134 
L 1269 2991 
Q 1406 3038 1543 3061 
Q 1681 3084 1819 3084 
Q 2600 3084 3056 2656 
Q 3513 2228 3513 1497 
Q 3513 744 3044 326 
Q 2575 -91 1722 -91 
Q 1428 -91 1123 -41 
Q 819 9 494 109 
L 494 744 
Q 775 591 1075 516 
Q 1375 441 1709 441 
Q 2250 441 2565 725 
Q 2881 1009 2881 1497 
Q 2881 1984 2565 2268 
Q 2250 2553 1709 2553 
Q 1456 2553 1204 2497 
Q 953 2441 691 2322 
L 691 4666 
z
" transform="scale(0.015625)"/>
       </defs>
       <use xlink:href="#DejaVuSans-31" transform="translate(0 0.684375)"/>
       <use xlink:href="#DejaVuSans-30" transform="translate(63.623047 0.684375)"/>
       <use xlink:href="#DejaVuSans-2212" transform="translate(128.203125 38.965625) scale(0.7)"/>
       <use xlink:href="#DejaVuSans-35" transform="translate(186.855469 38.965625) scale(0.7)"/>
      </g>
     </g>
    </g>
    <g id="xtick_3">
     <g id="line2d_5">
      <path d="M 134.875911 311.606125 
L 134.875911 22.318125 
" clip-path="url(#p937711f7e0)" style="fill: none; stroke: #b0b0b0; stroke-opacity: 0.3; stroke-width: 0.8; stroke-linecap: square"/>
     </g>
     <g id="line2d_6">
      <g>
       <use xlink:href="#mc377304907" x="134.875911" y="311.606125" style="stroke: #000000; stroke-width: 0.8"/>
      </g>
     </g>
     <g id="text_3">
      <!-- $\mathdefault{10^{-4}}$ -->
      <g transform="translate(123.125911 326.204563) scale(0.1 -0.1)">
       <defs>
        <path id="DejaVuSans-34" d="M 2419 4116 
L 825 1625 
L 2419 1625 
L 2419 4116 
z
M 2253 4666 
L 3047 4666 
L 3047 1625 
L 3713 1625 
L 3713 1100 
L 3047 1100 
L 3047 0 
L 2419 0 
L 2419 1100 
L 313 1100 
L 313 1709 
L 2253 4666 
z
" transform="scale(0.015625)"/>
       </defs>
       <use xlink:href="#DejaVuSans-31" transform="translate(0 0.684375)"/>
       <use xlink:href="#DejaVuSans-30" transform="translate(63.623047 0.684375)"/>
       <use xlink:href="#DejaVuSans-2212" transform="translate(128.203125 38.965625) scale(0.7)"/>
       <use xlink:href="#DejaVuSans-34" transform="translate(186.855469 38.965625) scale(0.7)"/>
      </g>
     </g>
    </g>
    <g id="xtick_4">
     <g id="line2d_7">
      <path d="M 180.423242 311.606125 
L 180.423242 22.318125 
" clip-path="url(#p937711f7e0)" style="fill: none; stroke: #b0b0b0; stroke-opacity: 0.3; stroke-width: 0.8; stroke-linecap: square"/>
     </g>
     <g id="line2d_8">
      <g>
       <use xlink:href="#mc377304907" x="180.423242" y="311.606125" style="stroke: #000000; stroke-width: 0.8"/>
      </g>
     </g>
     <g id="text_4">
      <!-- $\mathdefault{10^{-3}}$ -->
      <g transform="translate(168.673242 326.204563) scale(0.1 -0.1)">
       <defs>
        <path id="DejaVuSans-33" d="M 2597 2516 
Q 3050 2419 3304 2112 
Q 3559 1806 3559 1356 
Q 3559 666 3084 287 
Q 2609 -91 1734 -91 
Q 1441 -91 1130 -33 
Q 819 25 488 141 
L 488 750 
Q 750 597 1062 519 
Q 1375 441 1716 441 
Q 2309 441 2620 675 
Q 2931 909 2931 1356 
Q 2931 1769 2642 2001 
Q 2353 2234 1838 2234 
L 1294 2234 
L 1294 2753 
L 1863 2753 
Q 2328 2753 2575 2939 
Q 2822 3125 2822 3475 
Q 2822 3834 2567 4026 
Q 2313 4219 1838 4219 
Q 1578 4219 1281 4162 
Q 984 4106 628 3988 
L 628 4550 
Q 988 4650 1302 4700 
Q 1616 4750 1894 4750 
Q 2613 4750 3031 4423 
Q 3450 4097 3450 3541 
Q 3450 3153 3228 2886 
Q 3006 2619 2597 2516 
z
" transform="scale(0.015625)"/>
       </defs>
       <use xlink:href="#DejaVuSans-31" transform="translate(0 0.765625)"/>
       <use xlink:href="#DejaVuSans-30" transform="translate(63.623047 0.765625)"/>
       <use xlink:href="#DejaVuSans-2212" transform="translate(128.203125 39.046875) scale(0.7)"/>
       <use xlink:href="#DejaVuSans-33" transform="translate(186.855469 39.046875) scale(0.7)"/>
      </g>
     </g>
    </g>
    <g id="xtick_5">
     <g id="line2d_9">
      <path d="M 225.970573 311.606125 
L 225.970573 22.318125 
" clip-path="url(#p937711f7e0)" style="fill: none; stroke: #b0b0b0; stroke-opacity: 0.3; stroke-width: 0.8; stroke-linecap: square"/>
     </g>
     <g id="line2d_10">
      <g>
       <use xlink:href="#mc377304907" x="225.970573" y="311.606125" style="stroke: #000000; stroke-width: 0.8"/>
      </g>
     </g>
     <g id="text_5">
      <!-- $\mathdefault{10^{-2}}$ -->
      <g transform="translate(214.220573 326.204563) scale(0.1 -0.1)">
       <defs>
        <path id="DejaVuSans-32" d="M 1228 531 
L 3431 531 
L 3431 0 
L 469 0 
L 469 531 
Q 828 903 1448 1529 
Q 2069 2156 2228 2338 
Q 2531 2678 2651 2914 
Q 2772 3150 2772 3378 
Q 2772 3750 2511 3984 
Q 2250 4219 1831 4219 
Q 1534 4219 1204 4116 
Q 875 4013 500 3803 
L 500 4441 
Q 881 4594 1212 4672 
Q 1544 4750 1819 4750 
Q 2544 4750 2975 4387 
Q 3406 4025 3406 3419 
Q 3406 3131 3298 2873 
Q 3191 2616 2906 2266 
Q 2828 2175 2409 1742 
Q 1991 1309 1228 531 
z
" transform="scale(0.015625)"/>
       </defs>
       <use xlink:href="#DejaVuSans-31" transform="translate(0 0.765625)"/>
       <use xlink:href="#DejaVuSans-30" transform="translate(63.623047 0.765625)"/>
       <use xlink:href="#DejaVuSans-2212" transform="translate(128.203125 39.046875) scale(0.7)"/>
       <use xlink:href="#DejaVuSans-32" transform="translate(186.855469 39.046875) scale(0.7)"/>
      </g>
     </g>
    </g>
    <g id="xtick_6">
     <g id="line2d_11">
      <path d="M 271.517903 311.606125 
L 271.517903 22.318125 
" clip-path="url(#p937711f7e0)" style="fill: none; stroke: #b0b0b0; stroke-opacity: 0.3; stroke-width: 0.8; stroke-linecap: square"/>
     </g>
     <g id="line2d_12">
      <g>
       <use xlink:href="#mc377304907" x="271.517903" y="311.606125" style="stroke: #000000; stroke-width: 0.8"/>
      </g>
     </g>
     <g id="text_6">
      <!-- $\mathdefault{10^{-1}}$ -->
      <g transform="translate(259.767903 326.204563) scale(0.1 -0.1)">
       <use xlink:href="#DejaVuSans-31" transform="translate(0 0.684375)"/>
       <use xlink:href="#DejaVuSans-30" transform="translate(63.623047 0.684375)"/>
       <use xlink:href="#DejaVuSans-2212" transform="translate(128.203125 38.965625) scale(0.7)"/>
       <use xlink:href="#DejaVuSans-31" transform="translate(186.855469 38.965625) scale(0.7)"/>
      </g>
     </g>
    </g>
    <g id="xtick_7">
     <g id="line2d_13">
      <path d="M 317.065234 311.606125 
L 317.065234 22.318125 
" clip-path="url(#p937711f7e0)" style="fill: none; stroke: #b0b0b0; stroke-opacity: 0.3; stroke-width: 0.8; stroke-linecap: square"/>
     </g>
     <g id="line2d_14">
      <g>
       <use xlink:href="#mc377304907" x="317.065234" y="311.606125" style="stroke: #000000; stroke-width: 0.8"/>
      </g>
     </g>
     <g id="text_7">
      <!-- $\mathdefault{10^{0}}$ -->
      <g transform="translate(308.265234 326.204563) scale(0.1 -0.1)">
       <use xlink:href="#DejaVuSans-31" transform="translate(0 0.765625)"/>
       <use xlink:href="#DejaVuSans-30" transform="translate(63.623047 0.765625)"/>
       <use xlink:href="#DejaVuSans-30" transform="translate(128.203125 39.046875) scale(0.7)"/>
      </g>
     </g>
    </g>
    <g id="xtick_8">
     <g id="line2d_15">
      <path d="M 362.612565 311.606125 
L 362.612565 22.318125 
" clip-path="url(#p937711f7e0)" style="fill: none; stroke: #b0b0b0; stroke-opacity: 0.3; stroke-width: 0.8; stroke-linecap: square"/>
     </g>
     <g id="line2d_16">
      <g>
       <use xlink:href="#mc377304907" x="362.612565" y="311.606125" style="stroke: #000000; stroke-width: 0.8"/>
      </g>
     </g>
     <g id="text_8">
      <!-- $\mathdefault{10^{1}}$ -->
      <g transform="translate(353.812565 326.204563) scale(0.1 -0.1)">
       <use xlink:href="#DejaVuSans-31" transform="translate(0 0.684375)"/>
       <use xlink:href="#DejaVuSans-30" transform="translate(63.623047 0.684375)"/>
       <use xlink:href="#DejaVuSans-31" transform="translate(128.203125 38.965625) scale(0.7)"/>
      </g>
     </g>
    </g>
    <g id="xtick_9">
     <g id="line2d_17">
      <path d="M 408.159895 311.606125 
L 408.159895 22.318125 
" clip-path="url(#p937711f7e0)" style="fill: none; stroke: #b0b0b0; stroke-opacity: 0.3; stroke-width: 0.8; stroke-linecap: square"/>
     </g>
     <g id="line2d_18">
      <g>
       <use xlink:href="#mc377304907" x="408.159895" y="311.606125" style="stroke: #000000; stroke-width: 0.8"/>
      </g>
     </g>
     <g id="text_9">
      <!-- $\mathdefault{10^{2}}$ -->
      <g transform="translate(399.359895 326.204563) scale(0.1 -0.1)">
       <use xlink:href="#DejaVuSans-31" transform="translate(0 0.765625)"/>
       <use xlink:href="#DejaVuSans-30" transform="translate(63.623047 0.765625)"/>
       <use xlink:href="#DejaVuSans-32" transform="translate(128.203125 39.046875) scale(0.7)"/>
      </g>
     </g>
    </g>
    <g id="xtick_10">
     <g id="line2d_19">
      <path d="M 57.492363 311.606125 
L 57.492363 22.318125 
" clip-path="url(#p937711f7e0)" style="fill: none; stroke: #b0b0b0; stroke-opacity: 0.3; stroke-width: 0.8; stroke-linecap: square"/>
     </g>
     <g id="line2d_20">
      <defs>
       <path id="maeb9be6b2a" d="M 0 0 
L 0 2 
" style="stroke: #000000; stroke-width: 0.6"/>
      </defs>
      <g>
       <use xlink:href="#maeb9be6b2a" x="57.492363" y="311.606125" style="stroke: #000000; stroke-width: 0.6"/>
      </g>
     </g>
    </g>
    <g id="xtick_11">
     <g id="line2d_21">
      <path d="M 65.51285 311.606125 
L 65.51285 22.318125 
" clip-path="url(#p937711f7e0)" style="fill: none; stroke: #b0b0b0; stroke-opacity: 0.3; stroke-width: 0.8; stroke-linecap: square"/>
     </g>
     <g id="line2d_22">
      <g>
       <use xlink:href="#maeb9be6b2a" x="65.51285" y="311.606125" style="stroke: #000000; stroke-width: 0.6"/>
      </g>
     </g>
    </g>
    <g id="xtick_12">
     <g id="line2d_23">
      <path d="M 71.203476 311.606125 
L 71.203476 22.318125 
" clip-path="url(#p937711f7e0)" style="fill: none; stroke: #b0b0b0; stroke-opacity: 0.3; stroke-width: 0.8; stroke-linecap: square"/>
     </g>
     <g id="line2d_24">
      <g>
       <use xlink:href="#maeb9be6b2a" x="71.203476" y="311.606125" style="stroke: #000000; stroke-width: 0.6"/>
      </g>
     </g>
    </g>
    <g id="xtick_13">
     <g id="line2d_25">
      <path d="M 75.617468 311.606125 
L 75.617468 22.318125 
" clip-path="url(#p937711f7e0)" style="fill: none; stroke: #b0b0b0; stroke-opacity: 0.3; stroke-width: 0.8; stroke-linecap: square"/>
     </g>
     <g id="line2d_26">
      <g>
       <use xlink:href="#maeb9be6b2a" x="75.617468" y="311.606125" style="stroke: #000000; stroke-width: 0.6"/>
      </g>
     </g>
    </g>
    <g id="xtick_14">
     <g id="line2d_27">
      <path d="M 79.223962 311.606125 
L 79.223962 22.318125 
" clip-path="url(#p937711f7e0)" style="fill: none; stroke: #b0b0b0; stroke-opacity: 0.3; stroke-width: 0.8; stroke-linecap: square"/>
     </g>
     <g id="line2d_28">
      <g>
       <use xlink:href="#maeb9be6b2a" x="79.223962" y="311.606125" style="stroke: #000000; stroke-width: 0.6"/>
      </g>
     </g>
    </g>
    <g id="xtick_15">
     <g id="line2d_29">
      <path d="M 82.27321 311.606125 
L 82.27321 22.318125 
" clip-path="url(#p937711f7e0)" style="fill: none; stroke: #b0b0b0; stroke-opacity: 0.3; stroke-width: 0.8; stroke-linecap: square"/>
     </g>
     <g id="line2d_30">
      <g>
       <use xlink:href="#maeb9be6b2a" x="82.27321" y="311.606125" style="stroke: #000000; stroke-width: 0.6"/>
      </g>
     </g>
    </g>
    <g id="xtick_16">
     <g id="line2d_31">
      <path d="M 84.914588 311.606125 
L 84.914588 22.318125 
" clip-path="url(#p937711f7e0)" style="fill: none; stroke: #b0b0b0; stroke-opacity: 0.3; stroke-width: 0.8; stroke-linecap: square"/>
     </g>
     <g id="line2d_32">
      <g>
       <use xlink:href="#maeb9be6b2a" x="84.914588" y="311.606125" style="stroke: #000000; stroke-width: 0.6"/>
      </g>
     </g>
    </g>
    <g id="xtick_17">
     <g id="line2d_33">
      <path d="M 87.244449 311.606125 
L 87.244449 22.318125 
" clip-path="url(#p937711f7e0)" style="fill: none; stroke: #b0b0b0; stroke-opacity: 0.3; stroke-width: 0.8; stroke-linecap: square"/>
     </g>
     <g id="line2d_34">
      <g>
       <use xlink:href="#maeb9be6b2a" x="87.244449" y="311.606125" style="stroke: #000000; stroke-width: 0.6"/>
      </g>
     </g>
    </g>
    <g id="xtick_18">
     <g id="line2d_35">
      <path d="M 103.039693 311.606125 
L 103.039693 22.318125 
" clip-path="url(#p937711f7e0)" style="fill: none; stroke: #b0b0b0; stroke-opacity: 0.3; stroke-width: 0.8; stroke-linecap: square"/>
     </g>
     <g id="line2d_36">
      <g>
       <use xlink:href="#maeb9be6b2a" x="103.039693" y="311.606125" style="stroke: #000000; stroke-width: 0.6"/>
      </g>
     </g>
    </g>
    <g id="xtick_19">
     <g id="line2d_37">
      <path d="M 111.06018 311.606125 
L 111.06018 22.318125 
" clip-path="url(#p937711f7e0)" style="fill: none; stroke: #b0b0b0; stroke-opacity: 0.3; stroke-width: 0.8; stroke-linecap: square"/>
     </g>
     <g id="line2d_38">
      <g>
       <use xlink:href="#maeb9be6b2a" x="111.06018" y="311.606125" style="stroke: #000000; stroke-width: 0.6"/>
      </g>
     </g>
    </g>
    <g id="xtick_20">
     <g id="line2d_39">
      <path d="M 116.750806 311.606125 
L 116.750806 22.318125 
" clip-path="url(#p937711f7e0)" style="fill: none; stroke: #b0b0b0; stroke-opacity: 0.3; stroke-width: 0.8; stroke-linecap: square"/>
     </g>
     <g id="line2d_40">
      <g>
       <use xlink:href="#maeb9be6b2a" x="116.750806" y="311.606125" style="stroke: #000000; stroke-width: 0.6"/>
      </g>
     </g>
    </g>
    <g id="xtick_21">
     <g id="line2d_41">
      <path d="M 121.164799 311.606125 
L 121.164799 22.318125 
" clip-path="url(#p937711f7e0)" style="fill: none; stroke: #b0b0b0; stroke-opacity: 0.3; stroke-width: 0.8; stroke-linecap: square"/>
     </g>
     <g id="line2d_42">
      <g>
       <use xlink:href="#maeb9be6b2a" x="121.164799" y="311.606125" style="stroke: #000000; stroke-width: 0.6"/>
      </g>
     </g>
    </g>
    <g id="xtick_22">
     <g id="line2d_43">
      <path d="M 124.771293 311.606125 
L 124.771293 22.318125 
" clip-path="url(#p937711f7e0)" style="fill: none; stroke: #b0b0b0; stroke-opacity: 0.3; stroke-width: 0.8; stroke-linecap: square"/>
     </g>
     <g id="line2d_44">
      <g>
       <use xlink:href="#maeb9be6b2a" x="124.771293" y="311.606125" style="stroke: #000000; stroke-width: 0.6"/>
      </g>
     </g>
    </g>
    <g id="xtick_23">
     <g id="line2d_45">
      <path d="M 127.820541 311.606125 
L 127.820541 22.318125 
" clip-path="url(#p937711f7e0)" style="fill: none; stroke: #b0b0b0; stroke-opacity: 0.3; stroke-width: 0.8; stroke-linecap: square"/>
     </g>
     <g id="line2d_46">
      <g>
       <use xlink:href="#maeb9be6b2a" x="127.820541" y="311.606125" style="stroke: #000000; stroke-width: 0.6"/>
      </g>
     </g>
    </g>
    <g id="xtick_24">
     <g id="line2d_47">
      <path d="M 130.461919 311.606125 
L 130.461919 22.318125 
" clip-path="url(#p937711f7e0)" style="fill: none; stroke: #b0b0b0; stroke-opacity: 0.3; stroke-width: 0.8; stroke-linecap: square"/>
     </g>
     <g id="line2d_48">
      <g>
       <use xlink:href="#maeb9be6b2a" x="130.461919" y="311.606125" style="stroke: #000000; stroke-width: 0.6"/>
      </g>
     </g>
    </g>
    <g id="xtick_25">
     <g id="line2d_49">
      <path d="M 132.79178 311.606125 
L 132.79178 22.318125 
" clip-path="url(#p937711f7e0)" style="fill: none; stroke: #b0b0b0; stroke-opacity: 0.3; stroke-width: 0.8; stroke-linecap: square"/>
     </g>
     <g id="line2d_50">
      <g>
       <use xlink:href="#maeb9be6b2a" x="132.79178" y="311.606125" style="stroke: #000000; stroke-width: 0.6"/>
      </g>
     </g>
    </g>
    <g id="xtick_26">
     <g id="line2d_51">
      <path d="M 148.587024 311.606125 
L 148.587024 22.318125 
" clip-path="url(#p937711f7e0)" style="fill: none; stroke: #b0b0b0; stroke-opacity: 0.3; stroke-width: 0.8; stroke-linecap: square"/>
     </g>
     <g id="line2d_52">
      <g>
       <use xlink:href="#maeb9be6b2a" x="148.587024" y="311.606125" style="stroke: #000000; stroke-width: 0.6"/>
      </g>
     </g>
    </g>
    <g id="xtick_27">
     <g id="line2d_53">
      <path d="M 156.607511 311.606125 
L 156.607511 22.318125 
" clip-path="url(#p937711f7e0)" style="fill: none; stroke: #b0b0b0; stroke-opacity: 0.3; stroke-width: 0.8; stroke-linecap: square"/>
     </g>
     <g id="line2d_54">
      <g>
       <use xlink:href="#maeb9be6b2a" x="156.607511" y="311.606125" style="stroke: #000000; stroke-width: 0.6"/>
      </g>
     </g>
    </g>
    <g id="xtick_28">
     <g id="line2d_55">
      <path d="M 162.298137 311.606125 
L 162.298137 22.318125 
" clip-path="url(#p937711f7e0)" style="fill: none; stroke: #b0b0b0; stroke-opacity: 0.3; stroke-width: 0.8; stroke-linecap: square"/>
     </g>
     <g id="line2d_56">
      <g>
       <use xlink:href="#maeb9be6b2a" x="162.298137" y="311.606125" style="stroke: #000000; stroke-width: 0.6"/>
      </g>
     </g>
    </g>
    <g id="xtick_29">
     <g id="line2d_57">
      <path d="M 166.712129 311.606125 
L 166.712129 22.318125 
" clip-path="url(#p937711f7e0)" style="fill: none; stroke: #b0b0b0; stroke-opacity: 0.3; stroke-width: 0.8; stroke-linecap: square"/>
     </g>
     <g id="line2d_58">
      <g>
       <use xlink:href="#maeb9be6b2a" x="166.712129" y="311.606125" style="stroke: #000000; stroke-width: 0.6"/>
      </g>
     </g>
    </g>
    <g id="xtick_30">
     <g id="line2d_59">
      <path d="M 170.318624 311.606125 
L 170.318624 22.318125 
" clip-path="url(#p937711f7e0)" style="fill: none; stroke: #b0b0b0; stroke-opacity: 0.3; stroke-width: 0.8; stroke-linecap: square"/>
     </g>
     <g id="line2d_60">
      <g>
       <use xlink:href="#maeb9be6b2a" x="170.318624" y="311.606125" style="stroke: #000000; stroke-width: 0.6"/>
      </g>
     </g>
    </g>
    <g id="xtick_31">
     <g id="line2d_61">
      <path d="M 173.367871 311.606125 
L 173.367871 22.318125 
" clip-path="url(#p937711f7e0)" style="fill: none; stroke: #b0b0b0; stroke-opacity: 0.3; stroke-width: 0.8; stroke-linecap: square"/>
     </g>
     <g id="line2d_62">
      <g>
       <use xlink:href="#maeb9be6b2a" x="173.367871" y="311.606125" style="stroke: #000000; stroke-width: 0.6"/>
      </g>
     </g>
    </g>
    <g id="xtick_32">
     <g id="line2d_63">
      <path d="M 176.00925 311.606125 
L 176.00925 22.318125 
" clip-path="url(#p937711f7e0)" style="fill: none; stroke: #b0b0b0; stroke-opacity: 0.3; stroke-width: 0.8; stroke-linecap: square"/>
     </g>
     <g id="line2d_64">
      <g>
       <use xlink:href="#maeb9be6b2a" x="176.00925" y="311.606125" style="stroke: #000000; stroke-width: 0.6"/>
      </g>
     </g>
    </g>
    <g id="xtick_33">
     <g id="line2d_65">
      <path d="M 178.33911 311.606125 
L 178.33911 22.318125 
" clip-path="url(#p937711f7e0)" style="fill: none; stroke: #b0b0b0; stroke-opacity: 0.3; stroke-width: 0.8; stroke-linecap: square"/>
     </g>
     <g id="line2d_66">
      <g>
       <use xlink:href="#maeb9be6b2a" x="178.33911" y="311.606125" style="stroke: #000000; stroke-width: 0.6"/>
      </g>
     </g>
    </g>
    <g id="xtick_34">
     <g id="line2d_67">
      <path d="M 194.134355 311.606125 
L 194.134355 22.318125 
" clip-path="url(#p937711f7e0)" style="fill: none; stroke: #b0b0b0; stroke-opacity: 0.3; stroke-width: 0.8; stroke-linecap: square"/>
     </g>
     <g id="line2d_68">
      <g>
       <use xlink:href="#maeb9be6b2a" x="194.134355" y="311.606125" style="stroke: #000000; stroke-width: 0.6"/>
      </g>
     </g>
    </g>
    <g id="xtick_35">
     <g id="line2d_69">
      <path d="M 202.154842 311.606125 
L 202.154842 22.318125 
" clip-path="url(#p937711f7e0)" style="fill: none; stroke: #b0b0b0; stroke-opacity: 0.3; stroke-width: 0.8; stroke-linecap: square"/>
     </g>
     <g id="line2d_70">
      <g>
       <use xlink:href="#maeb9be6b2a" x="202.154842" y="311.606125" style="stroke: #000000; stroke-width: 0.6"/>
      </g>
     </g>
    </g>
    <g id="xtick_36">
     <g id="line2d_71">
      <path d="M 207.845468 311.606125 
L 207.845468 22.318125 
" clip-path="url(#p937711f7e0)" style="fill: none; stroke: #b0b0b0; stroke-opacity: 0.3; stroke-width: 0.8; stroke-linecap: square"/>
     </g>
     <g id="line2d_72">
      <g>
       <use xlink:href="#maeb9be6b2a" x="207.845468" y="311.606125" style="stroke: #000000; stroke-width: 0.6"/>
      </g>
     </g>
    </g>
    <g id="xtick_37">
     <g id="line2d_73">
      <path d="M 212.25946 311.606125 
L 212.25946 22.318125 
" clip-path="url(#p937711f7e0)" style="fill: none; stroke: #b0b0b0; stroke-opacity: 0.3; stroke-width: 0.8; stroke-linecap: square"/>
     </g>
     <g id="line2d_74">
      <g>
       <use xlink:href="#maeb9be6b2a" x="212.25946" y="311.606125" style="stroke: #000000; stroke-width: 0.6"/>
      </g>
     </g>
    </g>
    <g id="xtick_38">
     <g id="line2d_75">
      <path d="M 215.865954 311.606125 
L 215.865954 22.318125 
" clip-path="url(#p937711f7e0)" style="fill: none; stroke: #b0b0b0; stroke-opacity: 0.3; stroke-width: 0.8; stroke-linecap: square"/>
     </g>
     <g id="line2d_76">
      <g>
       <use xlink:href="#maeb9be6b2a" x="215.865954" y="311.606125" style="stroke: #000000; stroke-width: 0.6"/>
      </g>
     </g>
    </g>
    <g id="xtick_39">
     <g id="line2d_77">
      <path d="M 218.915202 311.606125 
L 218.915202 22.318125 
" clip-path="url(#p937711f7e0)" style="fill: none; stroke: #b0b0b0; stroke-opacity: 0.3; stroke-width: 0.8; stroke-linecap: square"/>
     </g>
     <g id="line2d_78">
      <g>
       <use xlink:href="#maeb9be6b2a" x="218.915202" y="311.606125" style="stroke: #000000; stroke-width: 0.6"/>
      </g>
     </g>
    </g>
    <g id="xtick_40">
     <g id="line2d_79">
      <path d="M 221.55658 311.606125 
L 221.55658 22.318125 
" clip-path="url(#p937711f7e0)" style="fill: none; stroke: #b0b0b0; stroke-opacity: 0.3; stroke-width: 0.8; stroke-linecap: square"/>
     </g>
     <g id="line2d_80">
      <g>
       <use xlink:href="#maeb9be6b2a" x="221.55658" y="311.606125" style="stroke: #000000; stroke-width: 0.6"/>
      </g>
     </g>
    </g>
    <g id="xtick_41">
     <g id="line2d_81">
      <path d="M 223.886441 311.606125 
L 223.886441 22.318125 
" clip-path="url(#p937711f7e0)" style="fill: none; stroke: #b0b0b0; stroke-opacity: 0.3; stroke-width: 0.8; stroke-linecap: square"/>
     </g>
     <g id="line2d_82">
      <g>
       <use xlink:href="#maeb9be6b2a" x="223.886441" y="311.606125" style="stroke: #000000; stroke-width: 0.6"/>
      </g>
     </g>
    </g>
    <g id="xtick_42">
     <g id="line2d_83">
      <path d="M 239.681685 311.606125 
L 239.681685 22.318125 
" clip-path="url(#p937711f7e0)" style="fill: none; stroke: #b0b0b0; stroke-opacity: 0.3; stroke-width: 0.8; stroke-linecap: square"/>
     </g>
     <g id="line2d_84">
      <g>
       <use xlink:href="#maeb9be6b2a" x="239.681685" y="311.606125" style="stroke: #000000; stroke-width: 0.6"/>
      </g>
     </g>
    </g>
    <g id="xtick_43">
     <g id="line2d_85">
      <path d="M 247.702172 311.606125 
L 247.702172 22.318125 
" clip-path="url(#p937711f7e0)" style="fill: none; stroke: #b0b0b0; stroke-opacity: 0.3; stroke-width: 0.8; stroke-linecap: square"/>
     </g>
     <g id="line2d_86">
      <g>
       <use xlink:href="#maeb9be6b2a" x="247.702172" y="311.606125" style="stroke: #000000; stroke-width: 0.6"/>
      </g>
     </g>
    </g>
    <g id="xtick_44">
     <g id="line2d_87">
      <path d="M 253.392798 311.606125 
L 253.392798 22.318125 
" clip-path="url(#p937711f7e0)" style="fill: none; stroke: #b0b0b0; stroke-opacity: 0.3; stroke-width: 0.8; stroke-linecap: square"/>
     </g>
     <g id="line2d_88">
      <g>
       <use xlink:href="#maeb9be6b2a" x="253.392798" y="311.606125" style="stroke: #000000; stroke-width: 0.6"/>
      </g>
     </g>
    </g>
    <g id="xtick_45">
     <g id="line2d_89">
      <path d="M 257.806791 311.606125 
L 257.806791 22.318125 
" clip-path="url(#p937711f7e0)" style="fill: none; stroke: #b0b0b0; stroke-opacity: 0.3; stroke-width: 0.8; stroke-linecap: square"/>
     </g>
     <g id="line2d_90">
      <g>
       <use xlink:href="#maeb9be6b2a" x="257.806791" y="311.606125" style="stroke: #000000; stroke-width: 0.6"/>
      </g>
     </g>
    </g>
    <g id="xtick_46">
     <g id="line2d_91">
      <path d="M 261.413285 311.606125 
L 261.413285 22.318125 
" clip-path="url(#p937711f7e0)" style="fill: none; stroke: #b0b0b0; stroke-opacity: 0.3; stroke-width: 0.8; stroke-linecap: square"/>
     </g>
     <g id="line2d_92">
      <g>
       <use xlink:href="#maeb9be6b2a" x="261.413285" y="311.606125" style="stroke: #000000; stroke-width: 0.6"/>
      </g>
     </g>
    </g>
    <g id="xtick_47">
     <g id="line2d_93">
      <path d="M 264.462533 311.606125 
L 264.462533 22.318125 
" clip-path="url(#p937711f7e0)" style="fill: none; stroke: #b0b0b0; stroke-opacity: 0.3; stroke-width: 0.8; stroke-linecap: square"/>
     </g>
     <g id="line2d_94">
      <g>
       <use xlink:href="#maeb9be6b2a" x="264.462533" y="311.606125" style="stroke: #000000; stroke-width: 0.6"/>
      </g>
     </g>
    </g>
    <g id="xtick_48">
     <g id="line2d_95">
      <path d="M 267.103911 311.606125 
L 267.103911 22.318125 
" clip-path="url(#p937711f7e0)" style="fill: none; stroke: #b0b0b0; stroke-opacity: 0.3; stroke-width: 0.8; stroke-linecap: square"/>
     </g>
     <g id="line2d_96">
      <g>
       <use xlink:href="#maeb9be6b2a" x="267.103911" y="311.606125" style="stroke: #000000; stroke-width: 0.6"/>
      </g>
     </g>
    </g>
    <g id="xtick_49">
     <g id="line2d_97">
      <path d="M 269.433772 311.606125 
L 269.433772 22.318125 
" clip-path="url(#p937711f7e0)" style="fill: none; stroke: #b0b0b0; stroke-opacity: 0.3; stroke-width: 0.8; stroke-linecap: square"/>
     </g>
     <g id="line2d_98">
      <g>
       <use xlink:href="#maeb9be6b2a" x="269.433772" y="311.606125" style="stroke: #000000; stroke-width: 0.6"/>
      </g>
     </g>
    </g>
    <g id="xtick_50">
     <g id="line2d_99">
      <path d="M 285.229016 311.606125 
L 285.229016 22.318125 
" clip-path="url(#p937711f7e0)" style="fill: none; stroke: #b0b0b0; stroke-opacity: 0.3; stroke-width: 0.8; stroke-linecap: square"/>
     </g>
     <g id="line2d_100">
      <g>
       <use xlink:href="#maeb9be6b2a" x="285.229016" y="311.606125" style="stroke: #000000; stroke-width: 0.6"/>
      </g>
     </g>
    </g>
    <g id="xtick_51">
     <g id="line2d_101">
      <path d="M 293.249503 311.606125 
L 293.249503 22.318125 
" clip-path="url(#p937711f7e0)" style="fill: none; stroke: #b0b0b0; stroke-opacity: 0.3; stroke-width: 0.8; stroke-linecap: square"/>
     </g>
     <g id="line2d_102">
      <g>
       <use xlink:href="#maeb9be6b2a" x="293.249503" y="311.606125" style="stroke: #000000; stroke-width: 0.6"/>
      </g>
     </g>
    </g>
    <g id="xtick_52">
     <g id="line2d_103">
      <path d="M 298.940129 311.606125 
L 298.940129 22.318125 
" clip-path="url(#p937711f7e0)" style="fill: none; stroke: #b0b0b0; stroke-opacity: 0.3; stroke-width: 0.8; stroke-linecap: square"/>
     </g>
     <g id="line2d_104">
      <g>
       <use xlink:href="#maeb9be6b2a" x="298.940129" y="311.606125" style="stroke: #000000; stroke-width: 0.6"/>
      </g>
     </g>
    </g>
    <g id="xtick_53">
     <g id="line2d_105">
      <path d="M 303.354121 311.606125 
L 303.354121 22.318125 
" clip-path="url(#p937711f7e0)" style="fill: none; stroke: #b0b0b0; stroke-opacity: 0.3; stroke-width: 0.8; stroke-linecap: square"/>
     </g>
     <g id="line2d_106">
      <g>
       <use xlink:href="#maeb9be6b2a" x="303.354121" y="311.606125" style="stroke: #000000; stroke-width: 0.6"/>
      </g>
     </g>
    </g>
    <g id="xtick_54">
     <g id="line2d_107">
      <path d="M 306.960616 311.606125 
L 306.960616 22.318125 
" clip-path="url(#p937711f7e0)" style="fill: none; stroke: #b0b0b0; stroke-opacity: 0.3; stroke-width: 0.8; stroke-linecap: square"/>
     </g>
     <g id="line2d_108">
      <g>
       <use xlink:href="#maeb9be6b2a" x="306.960616" y="311.606125" style="stroke: #000000; stroke-width: 0.6"/>
      </g>
     </g>
    </g>
    <g id="xtick_55">
     <g id="line2d_109">
      <path d="M 310.009863 311.606125 
L 310.009863 22.318125 
" clip-path="url(#p937711f7e0)" style="fill: none; stroke: #b0b0b0; stroke-opacity: 0.3; stroke-width: 0.8; stroke-linecap: square"/>
     </g>
     <g id="line2d_110">
      <g>
       <use xlink:href="#maeb9be6b2a" x="310.009863" y="311.606125" style="stroke: #000000; stroke-width: 0.6"/>
      </g>
     </g>
    </g>
    <g id="xtick_56">
     <g id="line2d_111">
      <path d="M 312.651242 311.606125 
L 312.651242 22.318125 
" clip-path="url(#p937711f7e0)" style="fill: none; stroke: #b0b0b0; stroke-opacity: 0.3; stroke-width: 0.8; stroke-linecap: square"/>
     </g>
     <g id="line2d_112">
      <g>
       <use xlink:href="#maeb9be6b2a" x="312.651242" y="311.606125" style="stroke: #000000; stroke-width: 0.6"/>
      </g>
     </g>
    </g>
    <g id="xtick_57">
     <g id="line2d_113">
      <path d="M 314.981103 311.606125 
L 314.981103 22.318125 
" clip-path="url(#p937711f7e0)" style="fill: none; stroke: #b0b0b0; stroke-opacity: 0.3; stroke-width: 0.8; stroke-linecap: square"/>
     </g>
     <g id="line2d_114">
      <g>
       <use xlink:href="#maeb9be6b2a" x="314.981103" y="311.606125" style="stroke: #000000; stroke-width: 0.6"/>
      </g>
     </g>
    </g>
    <g id="xtick_58">
     <g id="line2d_115">
      <path d="M 330.776347 311.606125 
L 330.776347 22.318125 
" clip-path="url(#p937711f7e0)" style="fill: none; stroke: #b0b0b0; stroke-opacity: 0.3; stroke-width: 0.8; stroke-linecap: square"/>
     </g>
     <g id="line2d_116">
      <g>
       <use xlink:href="#maeb9be6b2a" x="330.776347" y="311.606125" style="stroke: #000000; stroke-width: 0.6"/>
      </g>
     </g>
    </g>
    <g id="xtick_59">
     <g id="line2d_117">
      <path d="M 338.796834 311.606125 
L 338.796834 22.318125 
" clip-path="url(#p937711f7e0)" style="fill: none; stroke: #b0b0b0; stroke-opacity: 0.3; stroke-width: 0.8; stroke-linecap: square"/>
     </g>
     <g id="line2d_118">
      <g>
       <use xlink:href="#maeb9be6b2a" x="338.796834" y="311.606125" style="stroke: #000000; stroke-width: 0.6"/>
      </g>
     </g>
    </g>
    <g id="xtick_60">
     <g id="line2d_119">
      <path d="M 344.48746 311.606125 
L 344.48746 22.318125 
" clip-path="url(#p937711f7e0)" style="fill: none; stroke: #b0b0b0; stroke-opacity: 0.3; stroke-width: 0.8; stroke-linecap: square"/>
     </g>
     <g id="line2d_120">
      <g>
       <use xlink:href="#maeb9be6b2a" x="344.48746" y="311.606125" style="stroke: #000000; stroke-width: 0.6"/>
      </g>
     </g>
    </g>
    <g id="xtick_61">
     <g id="line2d_121">
      <path d="M 348.901452 311.606125 
L 348.901452 22.318125 
" clip-path="url(#p937711f7e0)" style="fill: none; stroke: #b0b0b0; stroke-opacity: 0.3; stroke-width: 0.8; stroke-linecap: square"/>
     </g>
     <g id="line2d_122">
      <g>
       <use xlink:href="#maeb9be6b2a" x="348.901452" y="311.606125" style="stroke: #000000; stroke-width: 0.6"/>
      </g>
     </g>
    </g>
    <g id="xtick_62">
     <g id="line2d_123">
      <path d="M 352.507946 311.606125 
L 352.507946 22.318125 
" clip-path="url(#p937711f7e0)" style="fill: none; stroke: #b0b0b0; stroke-opacity: 0.3; stroke-width: 0.8; stroke-linecap: square"/>
     </g>
     <g id="line2d_124">
      <g>
       <use xlink:href="#maeb9be6b2a" x="352.507946" y="311.606125" style="stroke: #000000; stroke-width: 0.6"/>
      </g>
     </g>
    </g>
    <g id="xtick_63">
     <g id="line2d_125">
      <path d="M 355.557194 311.606125 
L 355.557194 22.318125 
" clip-path="url(#p937711f7e0)" style="fill: none; stroke: #b0b0b0; stroke-opacity: 0.3; stroke-width: 0.8; stroke-linecap: square"/>
     </g>
     <g id="line2d_126">
      <g>
       <use xlink:href="#maeb9be6b2a" x="355.557194" y="311.606125" style="stroke: #000000; stroke-width: 0.6"/>
      </g>
     </g>
    </g>
    <g id="xtick_64">
     <g id="line2d_127">
      <path d="M 358.198572 311.606125 
L 358.198572 22.318125 
" clip-path="url(#p937711f7e0)" style="fill: none; stroke: #b0b0b0; stroke-opacity: 0.3; stroke-width: 0.8; stroke-linecap: square"/>
     </g>
     <g id="line2d_128">
      <g>
       <use xlink:href="#maeb9be6b2a" x="358.198572" y="311.606125" style="stroke: #000000; stroke-width: 0.6"/>
      </g>
     </g>
    </g>
    <g id="xtick_65">
     <g id="line2d_129">
      <path d="M 360.528433 311.606125 
L 360.528433 22.318125 
" clip-path="url(#p937711f7e0)" style="fill: none; stroke: #b0b0b0; stroke-opacity: 0.3; stroke-width: 0.8; stroke-linecap: square"/>
     </g>
     <g id="line2d_130">
      <g>
       <use xlink:href="#maeb9be6b2a" x="360.528433" y="311.606125" style="stroke: #000000; stroke-width: 0.6"/>
      </g>
     </g>
    </g>
    <g id="xtick_66">
     <g id="line2d_131">
      <path d="M 376.323677 311.606125 
L 376.323677 22.318125 
" clip-path="url(#p937711f7e0)" style="fill: none; stroke: #b0b0b0; stroke-opacity: 0.3; stroke-width: 0.8; stroke-linecap: square"/>
     </g>
     <g id="line2d_132">
      <g>
       <use xlink:href="#maeb9be6b2a" x="376.323677" y="311.606125" style="stroke: #000000; stroke-width: 0.6"/>
      </g>
     </g>
    </g>
    <g id="xtick_67">
     <g id="line2d_133">
      <path d="M 384.344164 311.606125 
L 384.344164 22.318125 
" clip-path="url(#p937711f7e0)" style="fill: none; stroke: #b0b0b0; stroke-opacity: 0.3; stroke-width: 0.8; stroke-linecap: square"/>
     </g>
     <g id="line2d_134">
      <g>
       <use xlink:href="#maeb9be6b2a" x="384.344164" y="311.606125" style="stroke: #000000; stroke-width: 0.6"/>
      </g>
     </g>
    </g>
    <g id="xtick_68">
     <g id="line2d_135">
      <path d="M 390.03479 311.606125 
L 390.03479 22.318125 
" clip-path="url(#p937711f7e0)" style="fill: none; stroke: #b0b0b0; stroke-opacity: 0.3; stroke-width: 0.8; stroke-linecap: square"/>
     </g>
     <g id="line2d_136">
      <g>
       <use xlink:href="#maeb9be6b2a" x="390.03479" y="311.606125" style="stroke: #000000; stroke-width: 0.6"/>
      </g>
     </g>
    </g>
    <g id="xtick_69">
     <g id="line2d_137">
      <path d="M 394.448783 311.606125 
L 394.448783 22.318125 
" clip-path="url(#p937711f7e0)" style="fill: none; stroke: #b0b0b0; stroke-opacity: 0.3; stroke-width: 0.8; stroke-linecap: square"/>
     </g>
     <g id="line2d_138">
      <g>
       <use xlink:href="#maeb9be6b2a" x="394.448783" y="311.606125" style="stroke: #000000; stroke-width: 0.6"/>
      </g>
     </g>
    </g>
    <g id="xtick_70">
     <g id="line2d_139">
      <path d="M 398.055277 311.606125 
L 398.055277 22.318125 
" clip-path="url(#p937711f7e0)" style="fill: none; stroke: #b0b0b0; stroke-opacity: 0.3; stroke-width: 0.8; stroke-linecap: square"/>
     </g>
     <g id="line2d_140">
      <g>
       <use xlink:href="#maeb9be6b2a" x="398.055277" y="311.606125" style="stroke: #000000; stroke-width: 0.6"/>
      </g>
     </g>
    </g>
    <g id="xtick_71">
     <g id="line2d_141">
      <path d="M 401.104525 311.606125 
L 401.104525 22.318125 
" clip-path="url(#p937711f7e0)" style="fill: none; stroke: #b0b0b0; stroke-opacity: 0.3; stroke-width: 0.8; stroke-linecap: square"/>
     </g>
     <g id="line2d_142">
      <g>
       <use xlink:href="#maeb9be6b2a" x="401.104525" y="311.606125" style="stroke: #000000; stroke-width: 0.6"/>
      </g>
     </g>
    </g>
    <g id="xtick_72">
     <g id="line2d_143">
      <path d="M 403.745903 311.606125 
L 403.745903 22.318125 
" clip-path="url(#p937711f7e0)" style="fill: none; stroke: #b0b0b0; stroke-opacity: 0.3; stroke-width: 0.8; stroke-linecap: square"/>
     </g>
     <g id="line2d_144">
      <g>
       <use xlink:href="#maeb9be6b2a" x="403.745903" y="311.606125" style="stroke: #000000; stroke-width: 0.6"/>
      </g>
     </g>
    </g>
    <g id="xtick_73">
     <g id="line2d_145">
      <path d="M 406.075764 311.606125 
L 406.075764 22.318125 
" clip-path="url(#p937711f7e0)" style="fill: none; stroke: #b0b0b0; stroke-opacity: 0.3; stroke-width: 0.8; stroke-linecap: square"/>
     </g>
     <g id="line2d_146">
      <g>
       <use xlink:href="#maeb9be6b2a" x="406.075764" y="311.606125" style="stroke: #000000; stroke-width: 0.6"/>
      </g>
     </g>
    </g>
    <g id="text_10">
     <!-- Input singular value (log scale) -->
     <g transform="translate(148.58776 339.882687) scale(0.1 -0.1)">
      <defs>
       <path id="DejaVuSans-49" d="M 628 4666 
L 1259 4666 
L 1259 0 
L 628 0 
L 628 4666 
z
" transform="scale(0.015625)"/>
       <path id="DejaVuSans-6e" d="M 3513 2113 
L 3513 0 
L 2938 0 
L 2938 2094 
Q 2938 2591 2744 2837 
Q 2550 3084 2163 3084 
Q 1697 3084 1428 2787 
Q 1159 2491 1159 1978 
L 1159 0 
L 581 0 
L 581 3500 
L 1159 3500 
L 1159 2956 
Q 1366 3272 1645 3428 
Q 1925 3584 2291 3584 
Q 2894 3584 3203 3211 
Q 3513 2838 3513 2113 
z
" transform="scale(0.015625)"/>
       <path id="DejaVuSans-70" d="M 1159 525 
L 1159 -1331 
L 581 -1331 
L 581 3500 
L 1159 3500 
L 1159 2969 
Q 1341 3281 1617 3432 
Q 1894 3584 2278 3584 
Q 2916 3584 3314 3078 
Q 3713 2572 3713 1747 
Q 3713 922 3314 415 
Q 2916 -91 2278 -91 
Q 1894 -91 1617 61 
Q 1341 213 1159 525 
z
M 3116 1747 
Q 3116 2381 2855 2742 
Q 2594 3103 2138 3103 
Q 1681 3103 1420 2742 
Q 1159 2381 1159 1747 
Q 1159 1113 1420 752 
Q 1681 391 2138 391 
Q 2594 391 2855 752 
Q 3116 1113 3116 1747 
z
" transform="scale(0.015625)"/>
       <path id="DejaVuSans-75" d="M 544 1381 
L 544 3500 
L 1119 3500 
L 1119 1403 
Q 1119 906 1312 657 
Q 1506 409 1894 409 
Q 2359 409 2629 706 
Q 2900 1003 2900 1516 
L 2900 3500 
L 3475 3500 
L 3475 0 
L 2900 0 
L 2900 538 
Q 2691 219 2414 64 
Q 2138 -91 1772 -91 
Q 1169 -91 856 284 
Q 544 659 544 1381 
z
M 1991 3584 
L 1991 3584 
z
" transform="scale(0.015625)"/>
       <path id="DejaVuSans-74" d="M 1172 4494 
L 1172 3500 
L 2356 3500 
L 2356 3053 
L 1172 3053 
L 1172 1153 
Q 1172 725 1289 603 
Q 1406 481 1766 481 
L 2356 481 
L 2356 0 
L 1766 0 
Q 1100 0 847 248 
Q 594 497 594 1153 
L 594 3053 
L 172 3053 
L 172 3500 
L 594 3500 
L 594 4494 
L 1172 4494 
z
" transform="scale(0.015625)"/>
       <path id="DejaVuSans-20" transform="scale(0.015625)"/>
       <path id="DejaVuSans-73" d="M 2834 3397 
L 2834 2853 
Q 2591 2978 2328 3040 
Q 2066 3103 1784 3103 
Q 1356 3103 1142 2972 
Q 928 2841 928 2578 
Q 928 2378 1081 2264 
Q 1234 2150 1697 2047 
L 1894 2003 
Q 2506 1872 2764 1633 
Q 3022 1394 3022 966 
Q 3022 478 2636 193 
Q 2250 -91 1575 -91 
Q 1294 -91 989 -36 
Q 684 19 347 128 
L 347 722 
Q 666 556 975 473 
Q 1284 391 1588 391 
Q 1994 391 2212 530 
Q 2431 669 2431 922 
Q 2431 1156 2273 1281 
Q 2116 1406 1581 1522 
L 1381 1569 
Q 847 1681 609 1914 
Q 372 2147 372 2553 
Q 372 3047 722 3315 
Q 1072 3584 1716 3584 
Q 2034 3584 2315 3537 
Q 2597 3491 2834 3397 
z
" transform="scale(0.015625)"/>
       <path id="DejaVuSans-69" d="M 603 3500 
L 1178 3500 
L 1178 0 
L 603 0 
L 603 3500 
z
M 603 4863 
L 1178 4863 
L 1178 4134 
L 603 4134 
L 603 4863 
z
" transform="scale(0.015625)"/>
       <path id="DejaVuSans-67" d="M 2906 1791 
Q 2906 2416 2648 2759 
Q 2391 3103 1925 3103 
Q 1463 3103 1205 2759 
Q 947 2416 947 1791 
Q 947 1169 1205 825 
Q 1463 481 1925 481 
Q 2391 481 2648 825 
Q 2906 1169 2906 1791 
z
M 3481 434 
Q 3481 -459 3084 -895 
Q 2688 -1331 1869 -1331 
Q 1566 -1331 1297 -1286 
Q 1028 -1241 775 -1147 
L 775 -588 
Q 1028 -725 1275 -790 
Q 1522 -856 1778 -856 
Q 2344 -856 2625 -561 
Q 2906 -266 2906 331 
L 2906 616 
Q 2728 306 2450 153 
Q 2172 0 1784 0 
Q 1141 0 747 490 
Q 353 981 353 1791 
Q 353 2603 747 3093 
Q 1141 3584 1784 3584 
Q 2172 3584 2450 3431 
Q 2728 3278 2906 2969 
L 2906 3500 
L 3481 3500 
L 3481 434 
z
" transform="scale(0.015625)"/>
       <path id="DejaVuSans-6c" d="M 603 4863 
L 1178 4863 
L 1178 0 
L 603 0 
L 603 4863 
z
" transform="scale(0.015625)"/>
       <path id="DejaVuSans-61" d="M 2194 1759 
Q 1497 1759 1228 1600 
Q 959 1441 959 1056 
Q 959 750 1161 570 
Q 1363 391 1709 391 
Q 2188 391 2477 730 
Q 2766 1069 2766 1631 
L 2766 1759 
L 2194 1759 
z
M 3341 1997 
L 3341 0 
L 2766 0 
L 2766 531 
Q 2569 213 2275 61 
Q 1981 -91 1556 -91 
Q 1019 -91 701 211 
Q 384 513 384 1019 
Q 384 1609 779 1909 
Q 1175 2209 1959 2209 
L 2766 2209 
L 2766 2266 
Q 2766 2663 2505 2880 
Q 2244 3097 1772 3097 
Q 1472 3097 1187 3025 
Q 903 2953 641 2809 
L 641 3341 
Q 956 3463 1253 3523 
Q 1550 3584 1831 3584 
Q 2591 3584 2966 3190 
Q 3341 2797 3341 1997 
z
" transform="scale(0.015625)"/>
       <path id="DejaVuSans-72" d="M 2631 2963 
Q 2534 3019 2420 3045 
Q 2306 3072 2169 3072 
Q 1681 3072 1420 2755 
Q 1159 2438 1159 1844 
L 1159 0 
L 581 0 
L 581 3500 
L 1159 3500 
L 1159 2956 
Q 1341 3275 1631 3429 
Q 1922 3584 2338 3584 
Q 2397 3584 2469 3576 
Q 2541 3569 2628 3553 
L 2631 2963 
z
" transform="scale(0.015625)"/>
       <path id="DejaVuSans-76" d="M 191 3500 
L 800 3500 
L 1894 563 
L 2988 3500 
L 3597 3500 
L 2284 0 
L 1503 0 
L 191 3500 
z
" transform="scale(0.015625)"/>
       <path id="DejaVuSans-65" d="M 3597 1894 
L 3597 1613 
L 953 1613 
Q 991 1019 1311 708 
Q 1631 397 2203 397 
Q 2534 397 2845 478 
Q 3156 559 3463 722 
L 3463 178 
Q 3153 47 2828 -22 
Q 2503 -91 2169 -91 
Q 1331 -91 842 396 
Q 353 884 353 1716 
Q 353 2575 817 3079 
Q 1281 3584 2069 3584 
Q 2775 3584 3186 3129 
Q 3597 2675 3597 1894 
z
M 3022 2063 
Q 3016 2534 2758 2815 
Q 2500 3097 2075 3097 
Q 1594 3097 1305 2825 
Q 1016 2553 972 2059 
L 3022 2063 
z
" transform="scale(0.015625)"/>
       <path id="DejaVuSans-28" d="M 1984 4856 
Q 1566 4138 1362 3434 
Q 1159 2731 1159 2009 
Q 1159 1288 1364 580 
Q 1569 -128 1984 -844 
L 1484 -844 
Q 1016 -109 783 600 
Q 550 1309 550 2009 
Q 550 2706 781 3412 
Q 1013 4119 1484 4856 
L 1984 4856 
z
" transform="scale(0.015625)"/>
       <path id="DejaVuSans-6f" d="M 1959 3097 
Q 1497 3097 1228 2736 
Q 959 2375 959 1747 
Q 959 1119 1226 758 
Q 1494 397 1959 397 
Q 2419 397 2687 759 
Q 2956 1122 2956 1747 
Q 2956 2369 2687 2733 
Q 2419 3097 1959 3097 
z
M 1959 3584 
Q 2709 3584 3137 3096 
Q 3566 2609 3566 1747 
Q 3566 888 3137 398 
Q 2709 -91 1959 -91 
Q 1206 -91 779 398 
Q 353 888 353 1747 
Q 353 2609 779 3096 
Q 1206 3584 1959 3584 
z
" transform="scale(0.015625)"/>
       <path id="DejaVuSans-63" d="M 3122 3366 
L 3122 2828 
Q 2878 2963 2633 3030 
Q 2388 3097 2138 3097 
Q 1578 3097 1268 2742 
Q 959 2388 959 1747 
Q 959 1106 1268 751 
Q 1578 397 2138 397 
Q 2388 397 2633 464 
Q 2878 531 3122 666 
L 3122 134 
Q 2881 22 2623 -34 
Q 2366 -91 2075 -91 
Q 1284 -91 818 406 
Q 353 903 353 1747 
Q 353 2603 823 3093 
Q 1294 3584 2113 3584 
Q 2378 3584 2631 3529 
Q 2884 3475 3122 3366 
z
" transform="scale(0.015625)"/>
       <path id="DejaVuSans-29" d="M 513 4856 
L 1013 4856 
Q 1481 4119 1714 3412 
Q 1947 2706 1947 2009 
Q 1947 1309 1714 600 
Q 1481 -109 1013 -844 
L 513 -844 
Q 928 -128 1133 580 
Q 1338 1288 1338 2009 
Q 1338 2731 1133 3434 
Q 928 4138 513 4856 
z
" transform="scale(0.015625)"/>
      </defs>
      <use xlink:href="#DejaVuSans-49"/>
      <use xlink:href="#DejaVuSans-6e" transform="translate(29.492188 0)"/>
      <use xlink:href="#DejaVuSans-70" transform="translate(92.871094 0)"/>
      <use xlink:href="#DejaVuSans-75" transform="translate(156.347656 0)"/>
      <use xlink:href="#DejaVuSans-74" transform="translate(219.726562 0)"/>
      <use xlink:href="#DejaVuSans-20" transform="translate(258.935547 0)"/>
      <use xlink:href="#DejaVuSans-73" transform="translate(290.722656 0)"/>
      <use xlink:href="#DejaVuSans-69" transform="translate(342.822266 0)"/>
      <use xlink:href="#DejaVuSans-6e" transform="translate(370.605469 0)"/>
      <use xlink:href="#DejaVuSans-67" transform="translate(433.984375 0)"/>
      <use xlink:href="#DejaVuSans-75" transform="translate(497.460938 0)"/>
      <use xlink:href="#DejaVuSans-6c" transform="translate(560.839844 0)"/>
      <use xlink:href="#DejaVuSans-61" transform="translate(588.623047 0)"/>
      <use xlink:href="#DejaVuSans-72" transform="translate(649.902344 0)"/>
      <use xlink:href="#DejaVuSans-20" transform="translate(691.015625 0)"/>
      <use xlink:href="#DejaVuSans-76" transform="translate(722.802734 0)"/>
      <use xlink:href="#DejaVuSans-61" transform="translate(781.982422 0)"/>
      <use xlink:href="#DejaVuSans-6c" transform="translate(843.261719 0)"/>
      <use xlink:href="#DejaVuSans-75" transform="translate(871.044922 0)"/>
      <use xlink:href="#DejaVuSans-65" transform="translate(934.423828 0)"/>
      <use xlink:href="#DejaVuSans-20" transform="translate(995.947266 0)"/>
      <use xlink:href="#DejaVuSans-28" transform="translate(1027.734375 0)"/>
      <use xlink:href="#DejaVuSans-6c" transform="translate(1066.748047 0)"/>
      <use xlink:href="#DejaVuSans-6f" transform="translate(1094.53125 0)"/>
      <use xlink:href="#DejaVuSans-67" transform="translate(1155.712891 0)"/>
      <use xlink:href="#DejaVuSans-20" transform="translate(1219.189453 0)"/>
      <use xlink:href="#DejaVuSans-73" transform="translate(1250.976562 0)"/>
      <use xlink:href="#DejaVuSans-63" transform="translate(1303.076172 0)"/>
      <use xlink:href="#DejaVuSans-61" transform="translate(1358.056641 0)"/>
      <use xlink:href="#DejaVuSans-6c" transform="translate(1419.335938 0)"/>
      <use xlink:href="#DejaVuSans-65" transform="translate(1447.119141 0)"/>
      <use xlink:href="#DejaVuSans-29" transform="translate(1508.642578 0)"/>
     </g>
    </g>
   </g>
   <g id="matplotlib.axis_2">
    <g id="ytick_1">
     <g id="line2d_147">
      <path d="M 43.78125 311.606125 
L 408.159895 311.606125 
" clip-path="url(#p937711f7e0)" style="fill: none; stroke: #b0b0b0; stroke-opacity: 0.3; stroke-width: 0.8; stroke-linecap: square"/>
     </g>
     <g id="line2d_148">
      <defs>
       <path id="m1f56947383" d="M 0 0 
L -3.5 0 
" style="stroke: #000000; stroke-width: 0.8"/>
      </defs>
      <g>
       <use xlink:href="#m1f56947383" x="43.78125" y="311.606125" style="stroke: #000000; stroke-width: 0.8"/>
      </g>
     </g>
     <g id="text_11">
      <!-- 0.0 -->
      <g transform="translate(20.878125 315.405344) scale(0.1 -0.1)">
       <defs>
        <path id="DejaVuSans-2e" d="M 684 794 
L 1344 794 
L 1344 0 
L 684 0 
L 684 794 
z
" transform="scale(0.015625)"/>
       </defs>
       <use xlink:href="#DejaVuSans-30"/>
       <use xlink:href="#DejaVuSans-2e" transform="translate(63.623047 0)"/>
       <use xlink:href="#DejaVuSans-30" transform="translate(95.410156 0)"/>
      </g>
     </g>
    </g>
    <g id="ytick_2">
     <g id="line2d_149">
      <path d="M 43.78125 259.008307 
L 408.159895 259.008307 
" clip-path="url(#p937711f7e0)" style="fill: none; stroke: #b0b0b0; stroke-opacity: 0.3; stroke-width: 0.8; stroke-linecap: square"/>
     </g>
     <g id="line2d_150">
      <g>
       <use xlink:href="#m1f56947383" x="43.78125" y="259.008307" style="stroke: #000000; stroke-width: 0.8"/>
      </g>
     </g>
     <g id="text_12">
      <!-- 0.2 -->
      <g transform="translate(20.878125 262.807526) scale(0.1 -0.1)">
       <use xlink:href="#DejaVuSans-30"/>
       <use xlink:href="#DejaVuSans-2e" transform="translate(63.623047 0)"/>
       <use xlink:href="#DejaVuSans-32" transform="translate(95.410156 0)"/>
      </g>
     </g>
    </g>
    <g id="ytick_3">
     <g id="line2d_151">
      <path d="M 43.78125 206.410489 
L 408.159895 206.410489 
" clip-path="url(#p937711f7e0)" style="fill: none; stroke: #b0b0b0; stroke-opacity: 0.3; stroke-width: 0.8; stroke-linecap: square"/>
     </g>
     <g id="line2d_152">
      <g>
       <use xlink:href="#m1f56947383" x="43.78125" y="206.410489" style="stroke: #000000; stroke-width: 0.8"/>
      </g>
     </g>
     <g id="text_13">
      <!-- 0.4 -->
      <g transform="translate(20.878125 210.209707) scale(0.1 -0.1)">
       <use xlink:href="#DejaVuSans-30"/>
       <use xlink:href="#DejaVuSans-2e" transform="translate(63.623047 0)"/>
       <use xlink:href="#DejaVuSans-34" transform="translate(95.410156 0)"/>
      </g>
     </g>
    </g>
    <g id="ytick_4">
     <g id="line2d_153">
      <path d="M 43.78125 153.81267 
L 408.159895 153.81267 
" clip-path="url(#p937711f7e0)" style="fill: none; stroke: #b0b0b0; stroke-opacity: 0.3; stroke-width: 0.8; stroke-linecap: square"/>
     </g>
     <g id="line2d_154">
      <g>
       <use xlink:href="#m1f56947383" x="43.78125" y="153.81267" style="stroke: #000000; stroke-width: 0.8"/>
      </g>
     </g>
     <g id="text_14">
      <!-- 0.6 -->
      <g transform="translate(20.878125 157.611889) scale(0.1 -0.1)">
       <use xlink:href="#DejaVuSans-30"/>
       <use xlink:href="#DejaVuSans-2e" transform="translate(63.623047 0)"/>
       <use xlink:href="#DejaVuSans-36" transform="translate(95.410156 0)"/>
      </g>
     </g>
    </g>
    <g id="ytick_5">
     <g id="line2d_155">
      <path d="M 43.78125 101.214852 
L 408.159895 101.214852 
" clip-path="url(#p937711f7e0)" style="fill: none; stroke: #b0b0b0; stroke-opacity: 0.3; stroke-width: 0.8; stroke-linecap: square"/>
     </g>
     <g id="line2d_156">
      <g>
       <use xlink:href="#m1f56947383" x="43.78125" y="101.214852" style="stroke: #000000; stroke-width: 0.8"/>
      </g>
     </g>
     <g id="text_15">
      <!-- 0.8 -->
      <g transform="translate(20.878125 105.014071) scale(0.1 -0.1)">
       <defs>
        <path id="DejaVuSans-38" d="M 2034 2216 
Q 1584 2216 1326 1975 
Q 1069 1734 1069 1313 
Q 1069 891 1326 650 
Q 1584 409 2034 409 
Q 2484 409 2743 651 
Q 3003 894 3003 1313 
Q 3003 1734 2745 1975 
Q 2488 2216 2034 2216 
z
M 1403 2484 
Q 997 2584 770 2862 
Q 544 3141 544 3541 
Q 544 4100 942 4425 
Q 1341 4750 2034 4750 
Q 2731 4750 3128 4425 
Q 3525 4100 3525 3541 
Q 3525 3141 3298 2862 
Q 3072 2584 2669 2484 
Q 3125 2378 3379 2068 
Q 3634 1759 3634 1313 
Q 3634 634 3220 271 
Q 2806 -91 2034 -91 
Q 1263 -91 848 271 
Q 434 634 434 1313 
Q 434 1759 690 2068 
Q 947 2378 1403 2484 
z
M 1172 3481 
Q 1172 3119 1398 2916 
Q 1625 2713 2034 2713 
Q 2441 2713 2670 2916 
Q 2900 3119 2900 3481 
Q 2900 3844 2670 4047 
Q 2441 4250 2034 4250 
Q 1625 4250 1398 4047 
Q 1172 3844 1172 3481 
z
" transform="scale(0.015625)"/>
       </defs>
       <use xlink:href="#DejaVuSans-30"/>
       <use xlink:href="#DejaVuSans-2e" transform="translate(63.623047 0)"/>
       <use xlink:href="#DejaVuSans-38" transform="translate(95.410156 0)"/>
      </g>
     </g>
    </g>
    <g id="ytick_6">
     <g id="line2d_157">
      <path d="M 43.78125 48.617034 
L 408.159895 48.617034 
" clip-path="url(#p937711f7e0)" style="fill: none; stroke: #b0b0b0; stroke-opacity: 0.3; stroke-width: 0.8; stroke-linecap: square"/>
     </g>
     <g id="line2d_158">
      <g>
       <use xlink:href="#m1f56947383" x="43.78125" y="48.617034" style="stroke: #000000; stroke-width: 0.8"/>
      </g>
     </g>
     <g id="text_16">
      <!-- 1.0 -->
      <g transform="translate(20.878125 52.416253) scale(0.1 -0.1)">
       <use xlink:href="#DejaVuSans-31"/>
       <use xlink:href="#DejaVuSans-2e" transform="translate(63.623047 0)"/>
       <use xlink:href="#DejaVuSans-30" transform="translate(95.410156 0)"/>
      </g>
     </g>
    </g>
    <g id="text_17">
     <!-- Output singular value -->
     <g transform="translate(14.798438 221.180094) rotate(-90) scale(0.1 -0.1)">
      <defs>
       <path id="DejaVuSans-4f" d="M 2522 4238 
Q 1834 4238 1429 3725 
Q 1025 3213 1025 2328 
Q 1025 1447 1429 934 
Q 1834 422 2522 422 
Q 3209 422 3611 934 
Q 4013 1447 4013 2328 
Q 4013 3213 3611 3725 
Q 3209 4238 2522 4238 
z
M 2522 4750 
Q 3503 4750 4090 4092 
Q 4678 3434 4678 2328 
Q 4678 1225 4090 567 
Q 3503 -91 2522 -91 
Q 1538 -91 948 565 
Q 359 1222 359 2328 
Q 359 3434 948 4092 
Q 1538 4750 2522 4750 
z
" transform="scale(0.015625)"/>
      </defs>
      <use xlink:href="#DejaVuSans-4f"/>
      <use xlink:href="#DejaVuSans-75" transform="translate(78.710938 0)"/>
      <use xlink:href="#DejaVuSans-74" transform="translate(142.089844 0)"/>
      <use xlink:href="#DejaVuSans-70" transform="translate(181.298828 0)"/>
      <use xlink:href="#DejaVuSans-75" transform="translate(244.775391 0)"/>
      <use xlink:href="#DejaVuSans-74" transform="translate(308.154297 0)"/>
      <use xlink:href="#DejaVuSans-20" transform="translate(347.363281 0)"/>
      <use xlink:href="#DejaVuSans-73" transform="translate(379.150391 0)"/>
      <use xlink:href="#DejaVuSans-69" transform="translate(431.25 0)"/>
      <use xlink:href="#DejaVuSans-6e" transform="translate(459.033203 0)"/>
      <use xlink:href="#DejaVuSans-67" transform="translate(522.412109 0)"/>
      <use xlink:href="#DejaVuSans-75" transform="translate(585.888672 0)"/>
      <use xlink:href="#DejaVuSans-6c" transform="translate(649.267578 0)"/>
      <use xlink:href="#DejaVuSans-61" transform="translate(677.050781 0)"/>
      <use xlink:href="#DejaVuSans-72" transform="translate(738.330078 0)"/>
      <use xlink:href="#DejaVuSans-20" transform="translate(779.443359 0)"/>
      <use xlink:href="#DejaVuSans-76" transform="translate(811.230469 0)"/>
      <use xlink:href="#DejaVuSans-61" transform="translate(870.410156 0)"/>
      <use xlink:href="#DejaVuSans-6c" transform="translate(931.689453 0)"/>
      <use xlink:href="#DejaVuSans-75" transform="translate(959.472656 0)"/>
      <use xlink:href="#DejaVuSans-65" transform="translate(1022.851562 0)"/>
     </g>
    </g>
   </g>
   <g id="line2d_159">
    <path d="M 43.78125 48.617034 
L 408.159895 48.617034 
L 408.159895 48.617034 
" clip-path="url(#p937711f7e0)" style="fill: none; stroke: #1f77b4; stroke-width: 2.5; stroke-linecap: square"/>
   </g>
   <g id="line2d_160">
    <path d="M 43.78125 311.343136 
L 59.544567 311.022649 
L 70.569778 310.587342 
L 79.134817 310.035314 
L 86.15086 309.366607 
L 92.073494 308.584962 
L 97.267188 307.678022 
L 101.82306 306.660974 
L 105.923345 305.522498 
L 109.65916 304.258791 
L 113.121622 302.854721 
L 116.310733 301.325873 
L 119.317608 299.641408 
L 122.142249 297.80961 
L 124.875772 295.771994 
L 127.518178 293.519072 
L 130.069466 291.043443 
L 132.529637 288.340288 
L 134.898691 285.407879 
L 137.267744 282.114223 
L 139.54568 278.568473 
L 141.823616 274.61173 
L 144.101552 270.202497 
L 146.379488 265.297553 
L 148.657424 259.852943 
L 150.93536 253.825471 
L 153.213296 247.174813 
L 155.58235 239.559987 
L 158.042521 230.86962 
L 160.593809 221.002948 
L 163.236215 209.886488 
L 166.151973 196.642891 
L 169.614436 179.827329 
L 175.719304 148.788261 
L 179.910706 128.069202 
L 182.826465 114.724273 
L 185.286635 104.442709 
L 187.564571 95.849854 
L 189.660273 88.782455 
L 191.664856 82.781938 
L 193.578323 77.730131 
L 195.491789 73.3056 
L 197.314138 69.634736 
L 199.136486 66.448841 
L 200.958835 63.70097 
L 202.781184 61.343727 
L 204.69465 59.238694 
L 206.608117 57.463434 
L 208.6127 55.907276 
L 210.708401 54.562032 
L 212.986337 53.371986 
L 215.446508 52.347015 
L 218.088914 51.486758 
L 221.09579 50.74355 
L 224.558252 50.120819 
L 228.658537 49.613368 
L 233.761114 49.213168 
L 240.503804 48.919029 
L 250.435606 48.727789 
L 268.750211 48.634428 
L 342.099751 48.617045 
L 408.159895 48.617034 
L 408.159895 48.617034 
" clip-path="url(#p937711f7e0)" style="fill: none; stroke-dasharray: 5.55,2.4; stroke-dashoffset: 0; stroke: #1f77b4; stroke-width: 1.5"/>
   </g>
   <g id="line2d_161">
    <path d="M 43.78125 311.579826 
L 82.779515 311.41726 
L 100.911885 311.133789 
L 113.121622 310.730504 
L 122.324484 310.211804 
L 129.704997 309.581258 
L 135.900983 308.836511 
L 141.276912 307.971736 
L 146.015018 306.988359 
L 150.297538 305.872634 
L 154.124471 304.649615 
L 157.678051 303.281873 
L 160.958279 301.782366 
L 164.056272 300.119743 
L 166.97203 298.299826 
L 169.705553 296.334143 
L 172.347959 294.160531 
L 174.899247 291.77174 
L 177.359418 289.16298 
L 179.728472 286.332407 
L 182.097525 283.152341 
L 184.375461 279.727823 
L 186.653397 275.904918 
L 188.931333 271.642817 
L 191.209269 266.898754 
L 193.487205 261.628871 
L 195.765141 255.789536 
L 198.043077 249.33925 
L 200.412131 241.943437 
L 202.781184 233.815334 
L 205.241355 224.581664 
L 207.883761 213.771337 
L 210.708401 201.250156 
L 213.988629 185.633977 
L 218.453384 163.15422 
L 224.922722 130.63248 
L 227.929598 116.68229 
L 230.480886 105.856702 
L 232.758822 97.120393 
L 234.854523 89.916118 
L 236.859107 83.785498 
L 238.772573 78.613965 
L 240.686039 74.076722 
L 242.508388 70.30666 
L 244.330737 67.030417 
L 246.153086 64.201396 
L 247.975435 61.772128 
L 249.797783 59.696197 
L 251.71125 57.848646 
L 253.715833 56.227757 
L 255.811535 54.825523 
L 257.998353 53.628923 
L 260.367407 52.585409 
L 263.009812 51.671141 
L 265.92557 50.901483 
L 269.296916 50.247749 
L 273.306083 49.70767 
L 278.226425 49.281825 
L 284.604646 48.966494 
L 293.71639 48.756292 
L 309.570825 48.645083 
L 358.774243 48.617228 
L 408.159895 48.617035 
L 408.159895 48.617035 
" clip-path="url(#p937711f7e0)" style="fill: none; stroke-dasharray: 5.55,2.4; stroke-dashoffset: 0; stroke: #ff7f0e; stroke-width: 1.5"/>
   </g>
   <g id="line2d_162">
    <path d="M 43.78125 311.603495 
L 119.95543 311.482429 
L 141.641381 311.235893 
L 155.21788 310.870684 
L 165.149681 310.391061 
L 173.076898 309.792126 
L 179.637354 309.078787 
L 185.286635 308.243496 
L 190.206977 307.294082 
L 194.580614 306.227459 
L 198.498664 305.049929 
L 202.143362 303.724571 
L 205.514707 302.261731 
L 208.6127 300.679971 
L 211.528458 298.948423 
L 214.353099 297.011123 
L 216.995505 294.933118 
L 219.546793 292.649054 
L 222.006964 290.154197 
L 224.467135 287.33599 
L 226.836188 284.279548 
L 229.205242 280.847662 
L 231.483178 277.154542 
L 233.761114 273.035323 
L 236.03905 268.447779 
L 238.316986 263.348279 
L 240.594922 257.692946 
L 242.872858 251.439359 
L 245.241911 244.259606 
L 247.610965 236.355882 
L 250.071136 227.358484 
L 252.622424 217.175886 
L 255.355947 205.340801 
L 258.45394 190.895912 
L 262.280873 171.917635 
L 271.483734 125.805437 
L 274.308375 113.041505 
L 276.768546 102.916699 
L 279.046482 94.482699 
L 281.142183 87.565647 
L 283.146767 81.707139 
L 285.060233 76.785349 
L 286.973699 72.482699 
L 288.796048 68.918717 
L 290.618397 65.829878 
L 292.440746 63.168959 
L 294.263095 60.88872 
L 296.176561 58.854352 
L 298.090027 57.140088 
L 300.094611 55.63846 
L 302.190312 54.341159 
L 304.468248 53.194147 
L 306.928419 52.206713 
L 309.661942 51.35337 
L 312.759935 50.625926 
L 316.313515 50.024438 
L 320.596035 49.532405 
L 325.971964 49.149742 
L 333.170242 48.874721 
L 344.104335 48.702423 
L 365.790285 48.62657 
L 408.159895 48.617166 
L 408.159895 48.617166 
" clip-path="url(#p937711f7e0)" style="fill: none; stroke-dasharray: 5.55,2.4; stroke-dashoffset: 0; stroke: #2ca02c; stroke-width: 1.5"/>
   </g>
   <g id="line2d_163">
    <path d="M 43.78125 311.605293 
L 141.459146 311.490121 
L 163.691802 311.249185 
L 177.450536 310.890526 
L 187.564571 310.4129 
L 195.491789 309.824729 
L 202.052245 309.124209 
L 207.701526 308.303926 
L 212.621868 307.371566 
L 216.995505 306.324095 
L 221.004672 305.13799 
L 224.64937 303.830406 
L 228.020715 302.387164 
L 231.209826 300.776885 
L 234.125584 299.06063 
L 236.950224 297.140406 
L 239.59263 295.080671 
L 242.143918 292.816625 
L 244.604089 290.343546 
L 247.06426 287.549819 
L 249.433314 284.519758 
L 251.802367 281.117263 
L 254.080303 277.455461 
L 256.358239 273.37075 
L 258.636175 268.821049 
L 260.914111 263.7628 
L 263.192047 258.152092 
L 265.469983 251.946316 
L 267.839037 244.81923 
L 270.20809 236.970411 
L 272.668261 228.031128 
L 275.219549 217.907985 
L 277.953073 206.132536 
L 281.051066 191.744853 
L 284.877998 172.811968 
L 294.445329 124.923415 
L 297.26997 112.233203 
L 299.730141 102.185603 
L 301.91696 94.145231 
L 304.012661 87.26578 
L 306.017244 81.442645 
L 307.930711 76.553135 
L 309.844177 72.280662 
L 311.666526 68.743084 
L 313.488875 65.678174 
L 315.311223 63.038658 
L 317.133572 60.777348 
L 319.047038 58.760328 
L 320.960505 57.061023 
L 322.965088 55.572756 
L 325.060789 54.287192 
L 327.338725 53.150709 
L 329.798896 52.172453 
L 332.53242 51.327127 
L 335.630413 50.606579 
L 339.27511 49.998157 
L 343.648747 49.507069 
L 349.115794 49.13023 
L 356.496307 48.860743 
L 367.794869 48.694866 
L 390.938699 48.624534 
L 408.159895 48.618349 
L 408.159895 48.618349 
" clip-path="url(#p937711f7e0)" style="fill: none; stroke-dasharray: 5.55,2.4; stroke-dashoffset: 0; stroke: #d62728; stroke-width: 1.5"/>
   </g>
   <g id="line2d_164">
    <path d="M 43.78125 311.605862 
L 163.691802 311.49325 
L 186.19781 311.253982 
L 200.047661 310.896884 
L 210.161697 310.423501 
L 218.180032 309.832405 
L 224.831605 309.123494 
L 230.480886 308.302975 
L 235.401228 307.370347 
L 239.774865 306.322575 
L 243.784032 305.136129 
L 247.42873 303.828169 
L 250.800075 302.384513 
L 253.989186 300.773772 
L 256.904944 299.057026 
L 259.729584 297.136254 
L 262.37199 295.075931 
L 264.923279 292.811242 
L 267.38345 290.337464 
L 269.84362 287.54295 
L 272.212674 284.512042 
L 274.581727 281.108602 
L 276.859663 277.445794 
L 279.137599 273.359973 
L 281.415535 268.809056 
L 283.693471 263.749481 
L 285.971407 258.137336 
L 288.249343 251.930022 
L 290.618397 244.80124 
L 292.98745 236.950653 
L 295.447621 228.009495 
L 297.99891 217.884432 
L 300.732433 206.107053 
L 303.830426 191.717512 
L 307.657358 172.783138 
L 317.22469 124.896753 
L 320.04933 112.208795 
L 322.509501 102.163546 
L 324.69632 94.125433 
L 326.792021 87.248195 
L 328.796605 81.427138 
L 330.710071 76.539525 
L 332.623537 72.268823 
L 334.445886 68.732794 
L 336.268235 65.669288 
L 338.090584 63.031027 
L 339.912932 60.770826 
L 341.826399 58.754823 
L 343.739865 57.056394 
L 345.744449 55.56891 
L 347.84015 54.284033 
L 350.118086 53.148167 
L 352.578257 52.170448 
L 355.31178 51.325591 
L 358.409773 50.605447 
L 362.05447 49.997368 
L 366.428108 49.506559 
L 371.895154 49.129936 
L 379.275667 48.860603 
L 390.574229 48.694821 
L 408.159895 48.630183 
L 408.159895 48.630183 
" clip-path="url(#p937711f7e0)" style="fill: none; stroke-dasharray: 5.55,2.4; stroke-dashoffset: 0; stroke: #9467bd; stroke-width: 1.5"/>
   </g>
   <g id="line2d_165">
    <path d="M 43.78125 311.606042 
L 186.19781 311.494768 
L 208.794935 311.257111 
L 222.735904 310.89994 
L 232.849939 310.428597 
L 240.868274 309.840048 
L 247.519847 309.134191 
L 253.169129 308.317207 
L 258.089471 307.388595 
L 262.463108 306.345333 
L 266.472275 305.163992 
L 270.116973 303.861656 
L 273.488318 302.424201 
L 276.677428 300.820371 
L 279.684304 299.053421 
L 282.508945 297.1321 
L 285.15135 295.071191 
L 287.702639 292.805858 
L 290.16281 290.33138 
L 292.622981 287.536079 
L 294.992034 284.504323 
L 297.361088 281.099939 
L 299.639024 277.436124 
L 301.91696 273.349194 
L 304.194896 268.79706 
L 306.472832 263.736157 
L 308.750768 258.122577 
L 311.028704 251.913724 
L 313.397757 244.783246 
L 315.766811 236.930889 
L 318.226981 227.987857 
L 320.77827 217.860874 
L 323.511793 206.081566 
L 326.609786 191.690168 
L 330.436718 172.754308 
L 340.00405 124.870095 
L 342.82869 112.184392 
L 345.288861 102.141495 
L 347.47568 94.105642 
L 349.571381 87.230615 
L 351.575965 81.411638 
L 353.489431 76.52592 
L 355.402897 72.256989 
L 357.225246 68.722509 
L 359.047595 65.660406 
L 360.869944 63.023399 
L 362.692292 60.764307 
L 364.605759 58.74932 
L 366.519225 57.051768 
L 368.523809 55.565065 
L 370.61951 54.280876 
L 372.897446 53.145625 
L 375.357617 52.168444 
L 378.09114 51.324056 
L 381.189133 50.604315 
L 384.833831 49.99658 
L 389.207468 49.506049 
L 394.674514 49.129641 
L 402.055027 48.860463 
L 408.159895 48.74843 
L 408.159895 48.74843 
" clip-path="url(#p937711f7e0)" style="fill: none; stroke-dasharray: 5.55,2.4; stroke-dashoffset: 0; stroke: #8c564b; stroke-width: 1.5"/>
   </g>
   <g id="patch_3">
    <path d="M 43.78125 311.606125 
L 43.78125 22.318125 
" style="fill: none; stroke: #000000; stroke-width: 0.8; stroke-linejoin: miter; stroke-linecap: square"/>
   </g>
   <g id="patch_4">
    <path d="M 408.159895 311.606125 
L 408.159895 22.318125 
" style="fill: none; stroke: #000000; stroke-width: 0.8; stroke-linejoin: miter; stroke-linecap: square"/>
   </g>
   <g id="patch_5">
    <path d="M 43.78125 311.606125 
L 408.159895 311.606125 
" style="fill: none; stroke: #000000; stroke-width: 0.8; stroke-linejoin: miter; stroke-linecap: square"/>
   </g>
   <g id="patch_6">
    <path d="M 43.78125 22.318125 
L 408.159895 22.318125 
" style="fill: none; stroke: #000000; stroke-width: 0.8; stroke-linejoin: miter; stroke-linecap: square"/>
   </g>
   <g id="text_18">
    <!-- Tikhonov Regularised Polar Maps (Log x-axis) -->
    <g transform="translate(90.205573 16.318125) scale(0.12 -0.12)">
     <defs>
      <path id="DejaVuSans-54" d="M -19 4666 
L 3928 4666 
L 3928 4134 
L 2272 4134 
L 2272 0 
L 1638 0 
L 1638 4134 
L -19 4134 
L -19 4666 
z
" transform="scale(0.015625)"/>
      <path id="DejaVuSans-6b" d="M 581 4863 
L 1159 4863 
L 1159 1991 
L 2875 3500 
L 3609 3500 
L 1753 1863 
L 3688 0 
L 2938 0 
L 1159 1709 
L 1159 0 
L 581 0 
L 581 4863 
z
" transform="scale(0.015625)"/>
      <path id="DejaVuSans-68" d="M 3513 2113 
L 3513 0 
L 2938 0 
L 2938 2094 
Q 2938 2591 2744 2837 
Q 2550 3084 2163 3084 
Q 1697 3084 1428 2787 
Q 1159 2491 1159 1978 
L 1159 0 
L 581 0 
L 581 4863 
L 1159 4863 
L 1159 2956 
Q 1366 3272 1645 3428 
Q 1925 3584 2291 3584 
Q 2894 3584 3203 3211 
Q 3513 2838 3513 2113 
z
" transform="scale(0.015625)"/>
      <path id="DejaVuSans-52" d="M 2841 2188 
Q 3044 2119 3236 1894 
Q 3428 1669 3622 1275 
L 4263 0 
L 3584 0 
L 2988 1197 
Q 2756 1666 2539 1819 
Q 2322 1972 1947 1972 
L 1259 1972 
L 1259 0 
L 628 0 
L 628 4666 
L 2053 4666 
Q 2853 4666 3247 4331 
Q 3641 3997 3641 3322 
Q 3641 2881 3436 2590 
Q 3231 2300 2841 2188 
z
M 1259 4147 
L 1259 2491 
L 2053 2491 
Q 2509 2491 2742 2702 
Q 2975 2913 2975 3322 
Q 2975 3731 2742 3939 
Q 2509 4147 2053 4147 
L 1259 4147 
z
" transform="scale(0.015625)"/>
      <path id="DejaVuSans-64" d="M 2906 2969 
L 2906 4863 
L 3481 4863 
L 3481 0 
L 2906 0 
L 2906 525 
Q 2725 213 2448 61 
Q 2172 -91 1784 -91 
Q 1150 -91 751 415 
Q 353 922 353 1747 
Q 353 2572 751 3078 
Q 1150 3584 1784 3584 
Q 2172 3584 2448 3432 
Q 2725 3281 2906 2969 
z
M 947 1747 
Q 947 1113 1208 752 
Q 1469 391 1925 391 
Q 2381 391 2643 752 
Q 2906 1113 2906 1747 
Q 2906 2381 2643 2742 
Q 2381 3103 1925 3103 
Q 1469 3103 1208 2742 
Q 947 2381 947 1747 
z
" transform="scale(0.015625)"/>
      <path id="DejaVuSans-50" d="M 1259 4147 
L 1259 2394 
L 2053 2394 
Q 2494 2394 2734 2622 
Q 2975 2850 2975 3272 
Q 2975 3691 2734 3919 
Q 2494 4147 2053 4147 
L 1259 4147 
z
M 628 4666 
L 2053 4666 
Q 2838 4666 3239 4311 
Q 3641 3956 3641 3272 
Q 3641 2581 3239 2228 
Q 2838 1875 2053 1875 
L 1259 1875 
L 1259 0 
L 628 0 
L 628 4666 
z
" transform="scale(0.015625)"/>
      <path id="DejaVuSans-4d" d="M 628 4666 
L 1569 4666 
L 2759 1491 
L 3956 4666 
L 4897 4666 
L 4897 0 
L 4281 0 
L 4281 4097 
L 3078 897 
L 2444 897 
L 1241 4097 
L 1241 0 
L 628 0 
L 628 4666 
z
" transform="scale(0.015625)"/>
      <path id="DejaVuSans-4c" d="M 628 4666 
L 1259 4666 
L 1259 531 
L 3531 531 
L 3531 0 
L 628 0 
L 628 4666 
z
" transform="scale(0.015625)"/>
      <path id="DejaVuSans-78" d="M 3513 3500 
L 2247 1797 
L 3578 0 
L 2900 0 
L 1881 1375 
L 863 0 
L 184 0 
L 1544 1831 
L 300 3500 
L 978 3500 
L 1906 2253 
L 2834 3500 
L 3513 3500 
z
" transform="scale(0.015625)"/>
      <path id="DejaVuSans-2d" d="M 313 2009 
L 1997 2009 
L 1997 1497 
L 313 1497 
L 313 2009 
z
" transform="scale(0.015625)"/>
     </defs>
     <use xlink:href="#DejaVuSans-54"/>
     <use xlink:href="#DejaVuSans-69" transform="translate(57.958984 0)"/>
     <use xlink:href="#DejaVuSans-6b" transform="translate(85.742188 0)"/>
     <use xlink:href="#DejaVuSans-68" transform="translate(143.652344 0)"/>
     <use xlink:href="#DejaVuSans-6f" transform="translate(207.03125 0)"/>
     <use xlink:href="#DejaVuSans-6e" transform="translate(268.212891 0)"/>
     <use xlink:href="#DejaVuSans-6f" transform="translate(331.591797 0)"/>
     <use xlink:href="#DejaVuSans-76" transform="translate(392.773438 0)"/>
     <use xlink:href="#DejaVuSans-20" transform="translate(451.953125 0)"/>
     <use xlink:href="#DejaVuSans-52" transform="translate(483.740234 0)"/>
     <use xlink:href="#DejaVuSans-65" transform="translate(548.722656 0)"/>
     <use xlink:href="#DejaVuSans-67" transform="translate(610.246094 0)"/>
     <use xlink:href="#DejaVuSans-75" transform="translate(673.722656 0)"/>
     <use xlink:href="#DejaVuSans-6c" transform="translate(737.101562 0)"/>
     <use xlink:href="#DejaVuSans-61" transform="translate(764.884766 0)"/>
     <use xlink:href="#DejaVuSans-72" transform="translate(826.164062 0)"/>
     <use xlink:href="#DejaVuSans-69" transform="translate(867.277344 0)"/>
     <use xlink:href="#DejaVuSans-73" transform="translate(895.060547 0)"/>
     <use xlink:href="#DejaVuSans-65" transform="translate(947.160156 0)"/>
     <use xlink:href="#DejaVuSans-64" transform="translate(1008.683594 0)"/>
     <use xlink:href="#DejaVuSans-20" transform="translate(1072.160156 0)"/>
     <use xlink:href="#DejaVuSans-50" transform="translate(1103.947266 0)"/>
     <use xlink:href="#DejaVuSans-6f" transform="translate(1160.625 0)"/>
     <use xlink:href="#DejaVuSans-6c" transform="translate(1221.806641 0)"/>
     <use xlink:href="#DejaVuSans-61" transform="translate(1249.589844 0)"/>
     <use xlink:href="#DejaVuSans-72" transform="translate(1310.869141 0)"/>
     <use xlink:href="#DejaVuSans-20" transform="translate(1351.982422 0)"/>
     <use xlink:href="#DejaVuSans-4d" transform="translate(1383.769531 0)"/>
     <use xlink:href="#DejaVuSans-61" transform="translate(1470.048828 0)"/>
     <use xlink:href="#DejaVuSans-70" transform="translate(1531.328125 0)"/>
     <use xlink:href="#DejaVuSans-73" transform="translate(1594.804688 0)"/>
     <use xlink:href="#DejaVuSans-20" transform="translate(1646.904297 0)"/>
     <use xlink:href="#DejaVuSans-28" transform="translate(1678.691406 0)"/>
     <use xlink:href="#DejaVuSans-4c" transform="translate(1717.705078 0)"/>
     <use xlink:href="#DejaVuSans-6f" transform="translate(1771.667969 0)"/>
     <use xlink:href="#DejaVuSans-67" transform="translate(1832.849609 0)"/>
     <use xlink:href="#DejaVuSans-20" transform="translate(1896.326172 0)"/>
     <use xlink:href="#DejaVuSans-78" transform="translate(1928.113281 0)"/>
     <use xlink:href="#DejaVuSans-2d" transform="translate(1987.292969 0)"/>
     <use xlink:href="#DejaVuSans-61" transform="translate(2023.376953 0)"/>
     <use xlink:href="#DejaVuSans-78" transform="translate(2084.65625 0)"/>
     <use xlink:href="#DejaVuSans-69" transform="translate(2143.835938 0)"/>
     <use xlink:href="#DejaVuSans-73" transform="translate(2171.619141 0)"/>
     <use xlink:href="#DejaVuSans-29" transform="translate(2223.71875 0)"/>
    </g>
   </g>
   <g id="legend_1">
    <g id="patch_7">
     <path d="M 49.38125 209.269625 
L 148.58125 209.269625 
Q 150.18125 209.269625 150.18125 207.669625 
L 150.18125 126.254625 
Q 150.18125 124.654625 148.58125 124.654625 
L 49.38125 124.654625 
Q 47.78125 124.654625 47.78125 126.254625 
L 47.78125 207.669625 
Q 47.78125 209.269625 49.38125 209.269625 
z
" style="fill: #ffffff; opacity: 0.8; stroke: #cccccc; stroke-linejoin: miter"/>
    </g>
    <g id="line2d_166">
     <path d="M 50.98125 131.134625 
L 58.98125 131.134625 
L 66.98125 131.134625 
" style="fill: none; stroke: #1f77b4; stroke-width: 2.5; stroke-linecap: square"/>
    </g>
    <g id="text_19">
     <!-- $\lambda=0$ (Exact polar) -->
     <g transform="translate(73.38125 133.934625) scale(0.08 -0.08)">
      <defs>
       <path id="DejaVuSans-Oblique-3bb" d="M 2350 4316 
L 3125 0 
L 2516 0 
L 2038 2588 
L 328 0 
L -281 0 
L 1903 3356 
L 1794 3975 
Q 1725 4369 1391 4369 
L 1091 4369 
L 1184 4863 
L 1550 4856 
Q 2253 4847 2350 4316 
z
" transform="scale(0.015625)"/>
       <path id="DejaVuSans-3d" d="M 678 2906 
L 4684 2906 
L 4684 2381 
L 678 2381 
L 678 2906 
z
M 678 1631 
L 4684 1631 
L 4684 1100 
L 678 1100 
L 678 1631 
z
" transform="scale(0.015625)"/>
       <path id="DejaVuSans-45" d="M 628 4666 
L 3578 4666 
L 3578 4134 
L 1259 4134 
L 1259 2753 
L 3481 2753 
L 3481 2222 
L 1259 2222 
L 1259 531 
L 3634 531 
L 3634 0 
L 628 0 
L 628 4666 
z
" transform="scale(0.015625)"/>
      </defs>
      <use xlink:href="#DejaVuSans-Oblique-3bb" transform="translate(0 0.015625)"/>
      <use xlink:href="#DejaVuSans-3d" transform="translate(78.662109 0.015625)"/>
      <use xlink:href="#DejaVuSans-30" transform="translate(181.933594 0.015625)"/>
      <use xlink:href="#DejaVuSans-20" transform="translate(245.556641 0.015625)"/>
      <use xlink:href="#DejaVuSans-28" transform="translate(277.34375 0.015625)"/>
      <use xlink:href="#DejaVuSans-45" transform="translate(316.357422 0.015625)"/>
      <use xlink:href="#DejaVuSans-78" transform="translate(379.541016 0.015625)"/>
      <use xlink:href="#DejaVuSans-61" transform="translate(438.720703 0.015625)"/>
      <use xlink:href="#DejaVuSans-63" transform="translate(500 0.015625)"/>
      <use xlink:href="#DejaVuSans-74" transform="translate(554.980469 0.015625)"/>
      <use xlink:href="#DejaVuSans-20" transform="translate(594.189453 0.015625)"/>
      <use xlink:href="#DejaVuSans-70" transform="translate(625.976562 0.015625)"/>
      <use xlink:href="#DejaVuSans-6f" transform="translate(689.453125 0.015625)"/>
      <use xlink:href="#DejaVuSans-6c" transform="translate(750.634766 0.015625)"/>
      <use xlink:href="#DejaVuSans-61" transform="translate(778.417969 0.015625)"/>
      <use xlink:href="#DejaVuSans-72" transform="translate(839.697266 0.015625)"/>
      <use xlink:href="#DejaVuSans-29" transform="translate(880.810547 0.015625)"/>
     </g>
    </g>
    <g id="line2d_167">
     <path d="M 50.98125 142.893375 
L 58.98125 142.893375 
L 66.98125 142.893375 
" style="fill: none; stroke-dasharray: 5.55,2.4; stroke-dashoffset: 0; stroke: #1f77b4; stroke-width: 1.5"/>
    </g>
    <g id="text_20">
     <!-- $\lambda=1e-06$ -->
     <g transform="translate(73.38125 145.693375) scale(0.08 -0.08)">
      <defs>
       <path id="DejaVuSans-Oblique-65" d="M 3078 2063 
Q 3088 2113 3092 2166 
Q 3097 2219 3097 2272 
Q 3097 2653 2873 2875 
Q 2650 3097 2266 3097 
Q 1838 3097 1509 2826 
Q 1181 2556 1013 2059 
L 3078 2063 
z
M 3578 1613 
L 903 1613 
Q 884 1494 878 1425 
Q 872 1356 872 1306 
Q 872 872 1139 634 
Q 1406 397 1894 397 
Q 2269 397 2603 481 
Q 2938 566 3225 728 
L 3116 159 
Q 2806 34 2476 -28 
Q 2147 -91 1806 -91 
Q 1078 -91 686 257 
Q 294 606 294 1247 
Q 294 1794 489 2264 
Q 684 2734 1063 3103 
Q 1306 3334 1642 3459 
Q 1978 3584 2356 3584 
Q 2950 3584 3301 3228 
Q 3653 2872 3653 2272 
Q 3653 2128 3634 1964 
Q 3616 1800 3578 1613 
z
" transform="scale(0.015625)"/>
      </defs>
      <use xlink:href="#DejaVuSans-Oblique-3bb" transform="translate(0 0.015625)"/>
      <use xlink:href="#DejaVuSans-3d" transform="translate(78.662109 0.015625)"/>
      <use xlink:href="#DejaVuSans-31" transform="translate(181.933594 0.015625)"/>
      <use xlink:href="#DejaVuSans-Oblique-65" transform="translate(245.556641 0.015625)"/>
      <use xlink:href="#DejaVuSans-2212" transform="translate(326.5625 0.015625)"/>
      <use xlink:href="#DejaVuSans-30" transform="translate(429.833984 0.015625)"/>
      <use xlink:href="#DejaVuSans-36" transform="translate(493.457031 0.015625)"/>
     </g>
    </g>
    <g id="line2d_168">
     <path d="M 50.98125 154.635875 
L 58.98125 154.635875 
L 66.98125 154.635875 
" style="fill: none; stroke-dasharray: 5.55,2.4; stroke-dashoffset: 0; stroke: #ff7f0e; stroke-width: 1.5"/>
    </g>
    <g id="text_21">
     <!-- $\lambda=0.0001$ -->
     <g transform="translate(73.38125 157.435875) scale(0.08 -0.08)">
      <use xlink:href="#DejaVuSans-Oblique-3bb" transform="translate(0 0.015625)"/>
      <use xlink:href="#DejaVuSans-3d" transform="translate(78.662109 0.015625)"/>
      <use xlink:href="#DejaVuSans-30" transform="translate(181.933594 0.015625)"/>
      <use xlink:href="#DejaVuSans-2e" transform="translate(245.556641 0.015625)"/>
      <use xlink:href="#DejaVuSans-30" transform="translate(277.34375 0.015625)"/>
      <use xlink:href="#DejaVuSans-30" transform="translate(340.966797 0.015625)"/>
      <use xlink:href="#DejaVuSans-30" transform="translate(404.589844 0.015625)"/>
      <use xlink:href="#DejaVuSans-31" transform="translate(468.212891 0.015625)"/>
     </g>
    </g>
    <g id="line2d_169">
     <path d="M 50.98125 166.378375 
L 58.98125 166.378375 
L 66.98125 166.378375 
" style="fill: none; stroke-dasharray: 5.55,2.4; stroke-dashoffset: 0; stroke: #2ca02c; stroke-width: 1.5"/>
    </g>
    <g id="text_22">
     <!-- $\lambda=0.01$ -->
     <g transform="translate(73.38125 169.178375) scale(0.08 -0.08)">
      <use xlink:href="#DejaVuSans-Oblique-3bb" transform="translate(0 0.015625)"/>
      <use xlink:href="#DejaVuSans-3d" transform="translate(78.662109 0.015625)"/>
      <use xlink:href="#DejaVuSans-30" transform="translate(181.933594 0.015625)"/>
      <use xlink:href="#DejaVuSans-2e" transform="translate(245.556641 0.015625)"/>
      <use xlink:href="#DejaVuSans-30" transform="translate(277.34375 0.015625)"/>
      <use xlink:href="#DejaVuSans-31" transform="translate(340.966797 0.015625)"/>
     </g>
    </g>
    <g id="line2d_170">
     <path d="M 50.98125 178.120875 
L 58.98125 178.120875 
L 66.98125 178.120875 
" style="fill: none; stroke-dasharray: 5.55,2.4; stroke-dashoffset: 0; stroke: #d62728; stroke-width: 1.5"/>
    </g>
    <g id="text_23">
     <!-- $\lambda=0.1$ -->
     <g transform="translate(73.38125 180.920875) scale(0.08 -0.08)">
      <use xlink:href="#DejaVuSans-Oblique-3bb" transform="translate(0 0.015625)"/>
      <use xlink:href="#DejaVuSans-3d" transform="translate(78.662109 0.015625)"/>
      <use xlink:href="#DejaVuSans-30" transform="translate(181.933594 0.015625)"/>
      <use xlink:href="#DejaVuSans-2e" transform="translate(245.556641 0.015625)"/>
      <use xlink:href="#DejaVuSans-31" transform="translate(277.34375 0.015625)"/>
     </g>
    </g>
    <g id="line2d_171">
     <path d="M 50.98125 189.863375 
L 58.98125 189.863375 
L 66.98125 189.863375 
" style="fill: none; stroke-dasharray: 5.55,2.4; stroke-dashoffset: 0; stroke: #9467bd; stroke-width: 1.5"/>
    </g>
    <g id="text_24">
     <!-- $\lambda=1$ -->
     <g transform="translate(73.38125 192.663375) scale(0.08 -0.08)">
      <use xlink:href="#DejaVuSans-Oblique-3bb" transform="translate(0 0.015625)"/>
      <use xlink:href="#DejaVuSans-3d" transform="translate(78.662109 0.015625)"/>
      <use xlink:href="#DejaVuSans-31" transform="translate(181.933594 0.015625)"/>
     </g>
    </g>
    <g id="line2d_172">
     <path d="M 50.98125 201.605875 
L 58.98125 201.605875 
L 66.98125 201.605875 
" style="fill: none; stroke-dasharray: 5.55,2.4; stroke-dashoffset: 0; stroke: #8c564b; stroke-width: 1.5"/>
    </g>
    <g id="text_25">
     <!-- $\lambda=10$ -->
     <g transform="translate(73.38125 204.405875) scale(0.08 -0.08)">
      <use xlink:href="#DejaVuSans-Oblique-3bb" transform="translate(0 0.015625)"/>
      <use xlink:href="#DejaVuSans-3d" transform="translate(78.662109 0.015625)"/>
      <use xlink:href="#DejaVuSans-31" transform="translate(181.933594 0.015625)"/>
      <use xlink:href="#DejaVuSans-30" transform="translate(245.556641 0.015625)"/>
     </g>
    </g>
   </g>
  </g>
 </g>
 <defs>
  <clipPath id="p937711f7e0">
   <rect x="43.78125" y="22.318125" width="364.378645" height="289.288"/>
  </clipPath>
 </defs>
</svg>
